<svg xmlns="http://www.w3.org/2000/svg" xmlns:xlink="http://www.w3.org/1999/xlink" width="1466.335" height="1088.985" viewBox="0 0 1466.335 1088.985">
  <defs>
    <clipPath id="clip-path">
      <rect id="Rectangle_21" data-name="Rectangle 21" width="1466.335" height="1088.985" fill="none"/>
    </clipPath>
  </defs>
  <g id="arrows_bg" data-name="arrows bg" opacity="0.517">
    <g id="Group_233" data-name="Group 233" clip-path="url(#clip-path)">
      <g id="Group_1" data-name="Group 1" transform="translate(48.988 24.922)">
        <path id="Path_2" data-name="Path 2" d="M2.573,5.859l-6.186,6.927,4.751,5.322L12.021,5.859,1.138-6.389-3.613-1.067Z" transform="translate(3.613 6.389)" fill="#fff"/>
      </g>
      <g id="Group_2" data-name="Group 2" transform="translate(48.988 188.191)">
        <path id="Path_3" data-name="Path 3" d="M2.573,5.859l-6.186,6.927,4.751,5.322L12.021,5.859,1.138-6.389-3.613-1.067Z" transform="translate(3.613 6.389)" fill="#fff"/>
      </g>
      <g id="Group_3" data-name="Group 3" transform="translate(146.049 24.922)">
        <path id="Path_4" data-name="Path 4" d="M2.573,5.859l-6.186,6.927,4.751,5.322L12.021,5.859,1.138-6.389-3.613-1.067Z" transform="translate(3.613 6.389)" fill="#fff"/>
      </g>
      <g id="Group_4" data-name="Group 4" transform="translate(146.049 188.191)">
        <path id="Path_5" data-name="Path 5" d="M2.573,5.859l-6.186,6.927,4.751,5.322L12.021,5.859,1.138-6.389-3.613-1.067Z" transform="translate(3.613 6.389)" fill="#fff"/>
      </g>
      <g id="Group_5" data-name="Group 5" transform="translate(1360 100.523)">
        <path id="Path_6" data-name="Path 6" d="M3.93,5.859l6.186,6.927L5.365,18.108-5.519,5.859,5.365-6.389l4.751,5.322Z" transform="translate(5.519 6.389)" fill="#fff"/>
      </g>
      <g id="Group_6" data-name="Group 6" transform="translate(1360 263.792)">
        <path id="Path_7" data-name="Path 7" d="M3.93,5.859l6.186,6.927L5.365,18.108-5.519,5.859,5.365-6.389l4.751,5.322Z" transform="translate(5.519 6.389)" fill="#fff"/>
      </g>
      <g id="Group_7" data-name="Group 7" transform="translate(243.11 24.922)">
        <path id="Path_8" data-name="Path 8" d="M2.573,5.859l-6.186,6.927,4.751,5.322L12.021,5.859,1.138-6.389-3.613-1.067Z" transform="translate(3.613 6.389)" fill="#fff"/>
      </g>
      <g id="Group_8" data-name="Group 8" transform="translate(243.11 188.191)">
        <path id="Path_9" data-name="Path 9" d="M2.573,5.859l-6.186,6.927,4.751,5.322L12.021,5.859,1.138-6.389-3.613-1.067Z" transform="translate(3.613 6.389)" fill="#fff"/>
      </g>
      <g id="Group_9" data-name="Group 9" transform="translate(1262.939 100.523)">
        <path id="Path_10" data-name="Path 10" d="M3.93,5.859l6.186,6.927L5.365,18.108-5.519,5.859,5.365-6.389l4.751,5.322Z" transform="translate(5.519 6.389)" fill="#fff"/>
      </g>
      <g id="Group_10" data-name="Group 10" transform="translate(1262.939 263.792)">
        <path id="Path_11" data-name="Path 11" d="M3.93,5.859l6.186,6.927L5.365,18.108-5.519,5.859,5.365-6.389l4.751,5.322Z" transform="translate(5.519 6.389)" fill="#fff"/>
      </g>
      <g id="Group_11" data-name="Group 11" transform="translate(340.171 24.922)">
        <path id="Path_12" data-name="Path 12" d="M2.573,5.859l-6.186,6.927,4.751,5.322L12.021,5.859,1.138-6.389-3.613-1.067Z" transform="translate(3.613 6.389)" fill="#fff"/>
      </g>
      <g id="Group_12" data-name="Group 12" transform="translate(340.171 188.191)">
        <path id="Path_13" data-name="Path 13" d="M2.573,5.859l-6.186,6.927,4.751,5.322L12.021,5.859,1.138-6.389-3.613-1.067Z" transform="translate(3.613 6.389)" fill="#fff"/>
      </g>
      <g id="Group_13" data-name="Group 13" transform="translate(1165.878 100.523)">
        <path id="Path_14" data-name="Path 14" d="M3.93,5.859l6.186,6.927L5.365,18.108-5.519,5.859,5.365-6.389l4.751,5.322Z" transform="translate(5.519 6.389)" fill="#fff"/>
      </g>
      <g id="Group_14" data-name="Group 14" transform="translate(1165.878 263.792)">
        <path id="Path_15" data-name="Path 15" d="M3.93,5.859l6.186,6.927L5.365,18.108-5.519,5.859,5.365-6.389l4.751,5.322Z" transform="translate(5.519 6.389)" fill="#fff"/>
      </g>
      <g id="Group_15" data-name="Group 15" transform="translate(437.232 24.922)">
        <path id="Path_16" data-name="Path 16" d="M2.573,5.859l-6.186,6.927,4.751,5.322L12.021,5.859,1.138-6.389-3.613-1.067Z" transform="translate(3.613 6.389)" fill="#fff"/>
      </g>
      <g id="Group_16" data-name="Group 16" transform="translate(437.232 188.191)">
        <path id="Path_17" data-name="Path 17" d="M2.573,5.859l-6.186,6.927,4.751,5.322L12.021,5.859,1.138-6.389-3.613-1.067Z" transform="translate(3.613 6.389)" fill="#fff"/>
      </g>
      <g id="Group_17" data-name="Group 17" transform="translate(1068.817 100.523)">
        <path id="Path_18" data-name="Path 18" d="M3.93,5.859l6.186,6.927L5.365,18.108-5.519,5.859,5.365-6.389l4.751,5.322Z" transform="translate(5.519 6.389)" fill="#fff"/>
      </g>
      <g id="Group_18" data-name="Group 18" transform="translate(1068.817 263.792)">
        <path id="Path_19" data-name="Path 19" d="M3.93,5.859l6.186,6.927L5.365,18.108-5.519,5.859,5.365-6.389l4.751,5.322Z" transform="translate(5.519 6.389)" fill="#fff"/>
      </g>
      <g id="Group_19" data-name="Group 19" transform="translate(534.293 24.922)">
        <path id="Path_20" data-name="Path 20" d="M2.573,5.859l-6.186,6.927,4.751,5.322L12.021,5.859,1.138-6.389-3.613-1.067Z" transform="translate(3.613 6.389)" fill="#fff"/>
      </g>
      <g id="Group_20" data-name="Group 20" transform="translate(534.293 188.191)">
        <path id="Path_21" data-name="Path 21" d="M2.573,5.859l-6.186,6.927,4.751,5.322L12.021,5.859,1.138-6.389-3.613-1.067Z" transform="translate(3.613 6.389)" fill="#fff"/>
      </g>
      <g id="Group_21" data-name="Group 21" transform="translate(971.755 100.523)">
        <path id="Path_22" data-name="Path 22" d="M3.93,5.859l6.186,6.927L5.365,18.108-5.519,5.859,5.365-6.389l4.751,5.322Z" transform="translate(5.519 6.389)" fill="#fff"/>
      </g>
      <g id="Group_22" data-name="Group 22" transform="translate(971.755 263.792)">
        <path id="Path_23" data-name="Path 23" d="M3.93,5.859l6.186,6.927L5.365,18.108-5.519,5.859,5.365-6.389l4.751,5.322Z" transform="translate(5.519 6.389)" fill="#fff"/>
      </g>
      <g id="Group_23" data-name="Group 23" transform="translate(631.354 24.922)">
        <path id="Path_24" data-name="Path 24" d="M2.573,5.859l-6.186,6.927,4.751,5.322L12.021,5.859,1.138-6.389-3.613-1.067Z" transform="translate(3.613 6.389)" fill="#fff"/>
      </g>
      <g id="Group_24" data-name="Group 24" transform="translate(631.354 188.191)">
        <path id="Path_25" data-name="Path 25" d="M2.573,5.859l-6.186,6.927,4.751,5.322L12.021,5.859,1.138-6.389-3.613-1.067Z" transform="translate(3.613 6.389)" fill="#fff"/>
      </g>
      <g id="Group_25" data-name="Group 25" transform="translate(874.694 100.523)">
        <path id="Path_26" data-name="Path 26" d="M3.93,5.859l6.186,6.927L5.365,18.108-5.519,5.859,5.365-6.389l4.751,5.322Z" transform="translate(5.519 6.389)" fill="#fff"/>
      </g>
      <g id="Group_26" data-name="Group 26" transform="translate(874.694 263.792)">
        <path id="Path_27" data-name="Path 27" d="M3.93,5.859l6.186,6.927L5.365,18.108-5.519,5.859,5.365-6.389l4.751,5.322Z" transform="translate(5.519 6.389)" fill="#fff"/>
      </g>
      <g id="Group_27" data-name="Group 27" transform="translate(728.416 24.922)">
        <path id="Path_28" data-name="Path 28" d="M2.573,5.859l-6.186,6.927,4.751,5.322L12.021,5.859,1.138-6.389-3.613-1.067Z" transform="translate(3.613 6.389)" fill="#fff"/>
      </g>
      <g id="Group_28" data-name="Group 28" transform="translate(728.416 188.191)">
        <path id="Path_29" data-name="Path 29" d="M2.573,5.859l-6.186,6.927,4.751,5.322L12.021,5.859,1.138-6.389-3.613-1.067Z" transform="translate(3.613 6.389)" fill="#fff"/>
      </g>
      <g id="Group_29" data-name="Group 29" transform="translate(777.633 100.523)">
        <path id="Path_30" data-name="Path 30" d="M3.93,5.859l6.186,6.927L5.365,18.108-5.519,5.859,5.365-6.389l4.751,5.322Z" transform="translate(5.519 6.389)" fill="#fff"/>
      </g>
      <g id="Group_30" data-name="Group 30" transform="translate(777.633 263.792)">
        <path id="Path_31" data-name="Path 31" d="M3.93,5.859l6.186,6.927L5.365,18.108-5.519,5.859,5.365-6.389l4.751,5.322Z" transform="translate(5.519 6.389)" fill="#fff"/>
      </g>
      <g id="Group_31" data-name="Group 31" transform="translate(825.477 24.922)">
        <path id="Path_32" data-name="Path 32" d="M2.573,5.859l-6.186,6.927,4.751,5.322L12.021,5.859,1.138-6.389-3.613-1.067Z" transform="translate(3.613 6.389)" fill="#fff"/>
      </g>
      <g id="Group_32" data-name="Group 32" transform="translate(825.477 188.191)">
        <path id="Path_33" data-name="Path 33" d="M2.573,5.859l-6.186,6.927,4.751,5.322L12.021,5.859,1.138-6.389-3.613-1.067Z" transform="translate(3.613 6.389)" fill="#fff"/>
      </g>
      <g id="Group_33" data-name="Group 33" transform="translate(680.572 100.523)">
        <path id="Path_34" data-name="Path 34" d="M3.93,5.859l6.186,6.927L5.365,18.108-5.519,5.859,5.365-6.389l4.751,5.322Z" transform="translate(5.519 6.389)" fill="#fff"/>
      </g>
      <g id="Group_34" data-name="Group 34" transform="translate(680.572 263.792)">
        <path id="Path_35" data-name="Path 35" d="M3.93,5.859l6.186,6.927L5.365,18.108-5.519,5.859,5.365-6.389l4.751,5.322Z" transform="translate(5.519 6.389)" fill="#fff"/>
      </g>
      <g id="Group_35" data-name="Group 35" transform="translate(922.538 24.922)">
        <path id="Path_36" data-name="Path 36" d="M2.573,5.859l-6.186,6.927,4.751,5.322L12.021,5.859,1.138-6.389-3.613-1.067Z" transform="translate(3.613 6.389)" fill="#fff"/>
      </g>
      <g id="Group_36" data-name="Group 36" transform="translate(922.538 188.191)">
        <path id="Path_37" data-name="Path 37" d="M2.573,5.859l-6.186,6.927,4.751,5.322L12.021,5.859,1.138-6.389-3.613-1.067Z" transform="translate(3.613 6.389)" fill="#fff"/>
      </g>
      <g id="Group_37" data-name="Group 37" transform="translate(583.511 100.523)">
        <path id="Path_38" data-name="Path 38" d="M3.93,5.859l6.186,6.927L5.365,18.108-5.519,5.859,5.365-6.389l4.751,5.322Z" transform="translate(5.519 6.389)" fill="#fff"/>
      </g>
      <g id="Group_38" data-name="Group 38" transform="translate(583.511 263.792)">
        <path id="Path_39" data-name="Path 39" d="M3.93,5.859l6.186,6.927L5.365,18.108-5.519,5.859,5.365-6.389l4.751,5.322Z" transform="translate(5.519 6.389)" fill="#fff"/>
      </g>
      <g id="Group_39" data-name="Group 39" transform="translate(1019.599 24.922)">
        <path id="Path_40" data-name="Path 40" d="M2.573,5.859l-6.186,6.927,4.751,5.322L12.021,5.859,1.138-6.389-3.613-1.067Z" transform="translate(3.613 6.389)" fill="#fff"/>
      </g>
      <g id="Group_40" data-name="Group 40" transform="translate(1019.599 188.191)">
        <path id="Path_41" data-name="Path 41" d="M2.573,5.859l-6.186,6.927,4.751,5.322L12.021,5.859,1.138-6.389-3.613-1.067Z" transform="translate(3.613 6.389)" fill="#fff"/>
      </g>
      <g id="Group_41" data-name="Group 41" transform="translate(486.45 100.523)">
        <path id="Path_42" data-name="Path 42" d="M3.93,5.859l6.186,6.927L5.365,18.108-5.519,5.859,5.365-6.389l4.751,5.322Z" transform="translate(5.519 6.389)" fill="#fff"/>
      </g>
      <g id="Group_42" data-name="Group 42" transform="translate(486.45 263.792)">
        <path id="Path_43" data-name="Path 43" d="M3.93,5.859l6.186,6.927L5.365,18.108-5.519,5.859,5.365-6.389l4.751,5.322Z" transform="translate(5.519 6.389)" fill="#fff"/>
      </g>
      <g id="Group_43" data-name="Group 43" transform="translate(1116.661 24.922)">
        <path id="Path_44" data-name="Path 44" d="M2.573,5.859l-6.186,6.927,4.751,5.322L12.021,5.859,1.138-6.389-3.613-1.067Z" transform="translate(3.613 6.389)" fill="#fff"/>
      </g>
      <g id="Group_44" data-name="Group 44" transform="translate(1116.661 188.191)">
        <path id="Path_45" data-name="Path 45" d="M2.573,5.859l-6.186,6.927,4.751,5.322L12.021,5.859,1.138-6.389-3.613-1.067Z" transform="translate(3.613 6.389)" fill="#fff"/>
      </g>
      <g id="Group_45" data-name="Group 45" transform="translate(389.388 100.523)">
        <path id="Path_46" data-name="Path 46" d="M3.93,5.859l6.186,6.927L5.365,18.108-5.519,5.859,5.365-6.389l4.751,5.322Z" transform="translate(5.519 6.389)" fill="#fff"/>
      </g>
      <g id="Group_46" data-name="Group 46" transform="translate(389.388 263.792)">
        <path id="Path_47" data-name="Path 47" d="M3.93,5.859l6.186,6.927L5.365,18.108-5.519,5.859,5.365-6.389l4.751,5.322Z" transform="translate(5.519 6.389)" fill="#fff"/>
      </g>
      <g id="Group_47" data-name="Group 47" transform="translate(1213.722 24.922)">
        <path id="Path_48" data-name="Path 48" d="M2.573,5.859l-6.186,6.927,4.751,5.322L12.021,5.859,1.138-6.389-3.613-1.067Z" transform="translate(3.613 6.389)" fill="#fff"/>
      </g>
      <g id="Group_48" data-name="Group 48" transform="translate(1213.722 188.191)">
        <path id="Path_49" data-name="Path 49" d="M2.573,5.859l-6.186,6.927,4.751,5.322L12.021,5.859,1.138-6.389-3.613-1.067Z" transform="translate(3.613 6.389)" fill="#fff"/>
      </g>
      <g id="Group_49" data-name="Group 49" transform="translate(292.327 100.523)">
        <path id="Path_50" data-name="Path 50" d="M3.93,5.859l6.186,6.927L5.365,18.108-5.519,5.859,5.365-6.389l4.751,5.322Z" transform="translate(5.519 6.389)" fill="#fff"/>
      </g>
      <g id="Group_50" data-name="Group 50" transform="translate(292.327 263.792)">
        <path id="Path_51" data-name="Path 51" d="M3.93,5.859l6.186,6.927L5.365,18.108-5.519,5.859,5.365-6.389l4.751,5.322Z" transform="translate(5.519 6.389)" fill="#fff"/>
      </g>
      <g id="Group_51" data-name="Group 51" transform="translate(1310.783 24.922)">
        <path id="Path_52" data-name="Path 52" d="M2.573,5.859l-6.186,6.927,4.751,5.322L12.021,5.859,1.138-6.389-3.613-1.067Z" transform="translate(3.613 6.389)" fill="#fff"/>
      </g>
      <g id="Group_52" data-name="Group 52" transform="translate(1310.783 188.191)">
        <path id="Path_53" data-name="Path 53" d="M2.573,5.859l-6.186,6.927,4.751,5.322L12.021,5.859,1.138-6.389-3.613-1.067Z" transform="translate(3.613 6.389)" fill="#fff"/>
      </g>
      <g id="Group_53" data-name="Group 53" transform="translate(195.266 100.523)">
        <path id="Path_54" data-name="Path 54" d="M3.93,5.859l6.186,6.927L5.365,18.108-5.519,5.859,5.365-6.389l4.751,5.322Z" transform="translate(5.519 6.389)" fill="#fff"/>
      </g>
      <g id="Group_54" data-name="Group 54" transform="translate(195.266 263.792)">
        <path id="Path_55" data-name="Path 55" d="M3.93,5.859l6.186,6.927L5.365,18.108-5.519,5.859,5.365-6.389l4.751,5.322Z" transform="translate(5.519 6.389)" fill="#fff"/>
      </g>
      <g id="Group_55" data-name="Group 55" transform="translate(1407.844 24.922)">
        <path id="Path_56" data-name="Path 56" d="M2.573,5.859l-6.186,6.927,4.751,5.322L12.021,5.859,1.138-6.389-3.613-1.067Z" transform="translate(3.613 6.389)" fill="#fff"/>
      </g>
      <g id="Group_56" data-name="Group 56" transform="translate(1407.844 188.191)">
        <path id="Path_57" data-name="Path 57" d="M2.573,5.859l-6.186,6.927,4.751,5.322L12.021,5.859,1.138-6.389-3.613-1.067Z" transform="translate(3.613 6.389)" fill="#fff"/>
      </g>
      <g id="Group_57" data-name="Group 57" transform="translate(98.205 100.523)">
        <path id="Path_58" data-name="Path 58" d="M3.93,5.859l6.186,6.927L5.365,18.108-5.519,5.859,5.365-6.389l4.751,5.322Z" transform="translate(5.519 6.389)" fill="#fff"/>
      </g>
      <g id="Group_58" data-name="Group 58" transform="translate(48.988 321.321)">
        <path id="Path_59" data-name="Path 59" d="M2.573,5.859l-6.186,6.927,4.751,5.322L12.021,5.859,1.138-6.389-3.613-1.067Z" transform="translate(3.613 6.389)" fill="#fff"/>
      </g>
      <g id="Group_59" data-name="Group 59" transform="translate(146.049 321.321)">
        <path id="Path_60" data-name="Path 60" d="M2.573,5.859l-6.186,6.927,4.751,5.322L12.021,5.859,1.138-6.389-3.613-1.067Z" transform="translate(3.613 6.389)" fill="#fff"/>
      </g>
      <g id="Group_60" data-name="Group 60" transform="translate(1360 396.922)">
        <path id="Path_61" data-name="Path 61" d="M3.93,5.859l6.186,6.927L5.365,18.108-5.519,5.859,5.365-6.389l4.751,5.322Z" transform="translate(5.519 6.389)" fill="#fff"/>
      </g>
      <g id="Group_61" data-name="Group 61" transform="translate(243.11 321.321)">
        <path id="Path_62" data-name="Path 62" d="M2.573,5.859l-6.186,6.927,4.751,5.322L12.021,5.859,1.138-6.389-3.613-1.067Z" transform="translate(3.613 6.389)" fill="#fff"/>
      </g>
      <g id="Group_62" data-name="Group 62" transform="translate(1262.939 396.922)">
        <path id="Path_63" data-name="Path 63" d="M3.93,5.859l6.186,6.927L5.365,18.108-5.519,5.859,5.365-6.389l4.751,5.322Z" transform="translate(5.519 6.389)" fill="#fff"/>
      </g>
      <g id="Group_63" data-name="Group 63" transform="translate(340.171 321.321)">
        <path id="Path_64" data-name="Path 64" d="M2.573,5.859l-6.186,6.927,4.751,5.322L12.021,5.859,1.138-6.389-3.613-1.067Z" transform="translate(3.613 6.389)" fill="#fff"/>
      </g>
      <g id="Group_64" data-name="Group 64" transform="translate(1165.878 396.922)">
        <path id="Path_65" data-name="Path 65" d="M3.93,5.859l6.186,6.927L5.365,18.108-5.519,5.859,5.365-6.389l4.751,5.322Z" transform="translate(5.519 6.389)" fill="#fff"/>
      </g>
      <g id="Group_65" data-name="Group 65" transform="translate(437.232 321.321)">
        <path id="Path_66" data-name="Path 66" d="M2.573,5.859l-6.186,6.927,4.751,5.322L12.021,5.859,1.138-6.389-3.613-1.067Z" transform="translate(3.613 6.389)" fill="#fff"/>
      </g>
      <g id="Group_66" data-name="Group 66" transform="translate(1068.817 396.922)">
        <path id="Path_67" data-name="Path 67" d="M3.93,5.859l6.186,6.927L5.365,18.108-5.519,5.859,5.365-6.389l4.751,5.322Z" transform="translate(5.519 6.389)" fill="#fff"/>
      </g>
      <g id="Group_67" data-name="Group 67" transform="translate(534.293 321.321)">
        <path id="Path_68" data-name="Path 68" d="M2.573,5.859l-6.186,6.927,4.751,5.322L12.021,5.859,1.138-6.389-3.613-1.067Z" transform="translate(3.613 6.389)" fill="#fff"/>
      </g>
      <g id="Group_68" data-name="Group 68" transform="translate(971.755 396.922)">
        <path id="Path_69" data-name="Path 69" d="M3.93,5.859l6.186,6.927L5.365,18.108-5.519,5.859,5.365-6.389l4.751,5.322Z" transform="translate(5.519 6.389)" fill="#fff"/>
      </g>
      <g id="Group_69" data-name="Group 69" transform="translate(631.354 321.321)">
        <path id="Path_70" data-name="Path 70" d="M2.573,5.859l-6.186,6.927,4.751,5.322L12.021,5.859,1.138-6.389-3.613-1.067Z" transform="translate(3.613 6.389)" fill="#fff"/>
      </g>
      <g id="Group_70" data-name="Group 70" transform="translate(874.694 396.922)">
        <path id="Path_71" data-name="Path 71" d="M3.93,5.859l6.186,6.927L5.365,18.108-5.519,5.859,5.365-6.389l4.751,5.322Z" transform="translate(5.519 6.389)" fill="#fff"/>
      </g>
      <g id="Group_71" data-name="Group 71" transform="translate(728.416 321.321)">
        <path id="Path_72" data-name="Path 72" d="M2.573,5.859l-6.186,6.927,4.751,5.322L12.021,5.859,1.138-6.389-3.613-1.067Z" transform="translate(3.613 6.389)" fill="#fff"/>
      </g>
      <g id="Group_72" data-name="Group 72" transform="translate(777.633 396.922)">
        <path id="Path_73" data-name="Path 73" d="M3.93,5.859l6.186,6.927L5.365,18.108-5.519,5.859,5.365-6.389l4.751,5.322Z" transform="translate(5.519 6.389)" fill="#fff"/>
      </g>
      <g id="Group_73" data-name="Group 73" transform="translate(825.477 321.321)">
        <path id="Path_74" data-name="Path 74" d="M2.573,5.859l-6.186,6.927,4.751,5.322L12.021,5.859,1.138-6.389-3.613-1.067Z" transform="translate(3.613 6.389)" fill="#fff"/>
      </g>
      <g id="Group_74" data-name="Group 74" transform="translate(680.572 396.922)">
        <path id="Path_75" data-name="Path 75" d="M3.93,5.859l6.186,6.927L5.365,18.108-5.519,5.859,5.365-6.389l4.751,5.322Z" transform="translate(5.519 6.389)" fill="#fff"/>
      </g>
      <g id="Group_75" data-name="Group 75" transform="translate(922.538 321.321)">
        <path id="Path_76" data-name="Path 76" d="M2.573,5.859l-6.186,6.927,4.751,5.322L12.021,5.859,1.138-6.389-3.613-1.067Z" transform="translate(3.613 6.389)" fill="#fff"/>
      </g>
      <g id="Group_76" data-name="Group 76" transform="translate(583.511 396.922)">
        <path id="Path_77" data-name="Path 77" d="M3.93,5.859l6.186,6.927L5.365,18.108-5.519,5.859,5.365-6.389l4.751,5.322Z" transform="translate(5.519 6.389)" fill="#fff"/>
      </g>
      <g id="Group_77" data-name="Group 77" transform="translate(1019.599 321.321)">
        <path id="Path_78" data-name="Path 78" d="M2.573,5.859l-6.186,6.927,4.751,5.322L12.021,5.859,1.138-6.389-3.613-1.067Z" transform="translate(3.613 6.389)" fill="#fff"/>
      </g>
      <g id="Group_78" data-name="Group 78" transform="translate(486.45 396.922)">
        <path id="Path_79" data-name="Path 79" d="M3.93,5.859l6.186,6.927L5.365,18.108-5.519,5.859,5.365-6.389l4.751,5.322Z" transform="translate(5.519 6.389)" fill="#fff"/>
      </g>
      <g id="Group_79" data-name="Group 79" transform="translate(1116.661 321.321)">
        <path id="Path_80" data-name="Path 80" d="M2.573,5.859l-6.186,6.927,4.751,5.322L12.021,5.859,1.138-6.389-3.613-1.067Z" transform="translate(3.613 6.389)" fill="#fff"/>
      </g>
      <g id="Group_80" data-name="Group 80" transform="translate(389.388 396.922)">
        <path id="Path_81" data-name="Path 81" d="M3.93,5.859l6.186,6.927L5.365,18.108-5.519,5.859,5.365-6.389l4.751,5.322Z" transform="translate(5.519 6.389)" fill="#fff"/>
      </g>
      <g id="Group_81" data-name="Group 81" transform="translate(1213.722 321.321)">
        <path id="Path_82" data-name="Path 82" d="M2.573,5.859l-6.186,6.927,4.751,5.322L12.021,5.859,1.138-6.389-3.613-1.067Z" transform="translate(3.613 6.389)" fill="#fff"/>
      </g>
      <g id="Group_82" data-name="Group 82" transform="translate(292.327 396.922)">
        <path id="Path_83" data-name="Path 83" d="M3.93,5.859l6.186,6.927L5.365,18.108-5.519,5.859,5.365-6.389l4.751,5.322Z" transform="translate(5.519 6.389)" fill="#fff"/>
      </g>
      <g id="Group_83" data-name="Group 83" transform="translate(1310.783 321.321)">
        <path id="Path_84" data-name="Path 84" d="M2.573,5.859l-6.186,6.927,4.751,5.322L12.021,5.859,1.138-6.389-3.613-1.067Z" transform="translate(3.613 6.389)" fill="#fff"/>
      </g>
      <g id="Group_84" data-name="Group 84" transform="translate(195.266 396.922)">
        <path id="Path_85" data-name="Path 85" d="M3.93,5.859l6.186,6.927L5.365,18.108-5.519,5.859,5.365-6.389l4.751,5.322Z" transform="translate(5.519 6.389)" fill="#fff"/>
      </g>
      <g id="Group_85" data-name="Group 85" transform="translate(1407.844 321.321)">
        <path id="Path_86" data-name="Path 86" d="M2.573,5.859l-6.186,6.927,4.751,5.322L12.021,5.859,1.138-6.389-3.613-1.067Z" transform="translate(3.613 6.389)" fill="#fff"/>
      </g>
      <g id="Group_86" data-name="Group 86" transform="translate(98.205 396.922)">
        <path id="Path_87" data-name="Path 87" d="M3.93,5.859l6.186,6.927L5.365,18.108-5.519,5.859,5.365-6.389l4.751,5.322Z" transform="translate(5.519 6.389)" fill="#fff"/>
      </g>
      <g id="Group_87" data-name="Group 87" transform="translate(48.988 454.451)">
        <path id="Path_88" data-name="Path 88" d="M2.573,5.859l-6.186,6.927,4.751,5.322L12.021,5.859,1.138-6.389-3.613-1.067Z" transform="translate(3.613 6.389)" fill="#fff"/>
      </g>
      <g id="Group_88" data-name="Group 88" transform="translate(146.049 454.451)">
        <path id="Path_89" data-name="Path 89" d="M2.573,5.859l-6.186,6.927,4.751,5.322L12.021,5.859,1.138-6.389-3.613-1.067Z" transform="translate(3.613 6.389)" fill="#fff"/>
      </g>
      <g id="Group_89" data-name="Group 89" transform="translate(1360 530.052)">
        <path id="Path_90" data-name="Path 90" d="M3.93,5.859l6.186,6.927L5.365,18.108-5.519,5.859,5.365-6.389l4.751,5.322Z" transform="translate(5.519 6.389)" fill="#fff"/>
      </g>
      <g id="Group_90" data-name="Group 90" transform="translate(243.11 454.451)">
        <path id="Path_91" data-name="Path 91" d="M2.573,5.859l-6.186,6.927,4.751,5.322L12.021,5.859,1.138-6.389-3.613-1.067Z" transform="translate(3.613 6.389)" fill="#fff"/>
      </g>
      <g id="Group_91" data-name="Group 91" transform="translate(1262.939 530.052)">
        <path id="Path_92" data-name="Path 92" d="M3.93,5.859l6.186,6.927L5.365,18.108-5.519,5.859,5.365-6.389l4.751,5.322Z" transform="translate(5.519 6.389)" fill="#fff"/>
      </g>
      <g id="Group_92" data-name="Group 92" transform="translate(340.171 454.451)">
        <path id="Path_93" data-name="Path 93" d="M2.573,5.859l-6.186,6.927,4.751,5.322L12.021,5.859,1.138-6.389-3.613-1.067Z" transform="translate(3.613 6.389)" fill="#fff"/>
      </g>
      <g id="Group_93" data-name="Group 93" transform="translate(1165.878 530.052)">
        <path id="Path_94" data-name="Path 94" d="M3.93,5.859l6.186,6.927L5.365,18.108-5.519,5.859,5.365-6.389l4.751,5.322Z" transform="translate(5.519 6.389)" fill="#fff"/>
      </g>
      <g id="Group_94" data-name="Group 94" transform="translate(437.232 454.451)">
        <path id="Path_95" data-name="Path 95" d="M2.573,5.859l-6.186,6.927,4.751,5.322L12.021,5.859,1.138-6.389-3.613-1.067Z" transform="translate(3.613 6.389)" fill="#fff"/>
      </g>
      <g id="Group_95" data-name="Group 95" transform="translate(1068.817 530.052)">
        <path id="Path_96" data-name="Path 96" d="M3.93,5.859l6.186,6.927L5.365,18.108-5.519,5.859,5.365-6.389l4.751,5.322Z" transform="translate(5.519 6.389)" fill="#fff"/>
      </g>
      <g id="Group_96" data-name="Group 96" transform="translate(534.293 454.451)">
        <path id="Path_97" data-name="Path 97" d="M2.573,5.859l-6.186,6.927,4.751,5.322L12.021,5.859,1.138-6.389-3.613-1.067Z" transform="translate(3.613 6.389)" fill="#fff"/>
      </g>
      <g id="Group_97" data-name="Group 97" transform="translate(971.755 530.052)">
        <path id="Path_98" data-name="Path 98" d="M3.93,5.859l6.186,6.927L5.365,18.108-5.519,5.859,5.365-6.389l4.751,5.322Z" transform="translate(5.519 6.389)" fill="#fff"/>
      </g>
      <g id="Group_98" data-name="Group 98" transform="translate(631.354 454.451)">
        <path id="Path_99" data-name="Path 99" d="M2.573,5.859l-6.186,6.927,4.751,5.322L12.021,5.859,1.138-6.389-3.613-1.067Z" transform="translate(3.613 6.389)" fill="#fff"/>
      </g>
      <g id="Group_99" data-name="Group 99" transform="translate(874.694 530.052)">
        <path id="Path_100" data-name="Path 100" d="M3.93,5.859l6.186,6.927L5.365,18.108-5.519,5.859,5.365-6.389l4.751,5.322Z" transform="translate(5.519 6.389)" fill="#fff"/>
      </g>
      <g id="Group_100" data-name="Group 100" transform="translate(728.416 454.451)">
        <path id="Path_101" data-name="Path 101" d="M2.573,5.859l-6.186,6.927,4.751,5.322L12.021,5.859,1.138-6.389-3.613-1.067Z" transform="translate(3.613 6.389)" fill="#fff"/>
      </g>
      <g id="Group_101" data-name="Group 101" transform="translate(777.633 530.052)">
        <path id="Path_102" data-name="Path 102" d="M3.93,5.859l6.186,6.927L5.365,18.108-5.519,5.859,5.365-6.389l4.751,5.322Z" transform="translate(5.519 6.389)" fill="#fff"/>
      </g>
      <g id="Group_102" data-name="Group 102" transform="translate(825.477 454.451)">
        <path id="Path_103" data-name="Path 103" d="M2.573,5.859l-6.186,6.927,4.751,5.322L12.021,5.859,1.138-6.389-3.613-1.067Z" transform="translate(3.613 6.389)" fill="#fff"/>
      </g>
      <g id="Group_103" data-name="Group 103" transform="translate(680.572 530.052)">
        <path id="Path_104" data-name="Path 104" d="M3.93,5.859l6.186,6.927L5.365,18.108-5.519,5.859,5.365-6.389l4.751,5.322Z" transform="translate(5.519 6.389)" fill="#fff"/>
      </g>
      <g id="Group_104" data-name="Group 104" transform="translate(922.538 454.451)">
        <path id="Path_105" data-name="Path 105" d="M2.573,5.859l-6.186,6.927,4.751,5.322L12.021,5.859,1.138-6.389-3.613-1.067Z" transform="translate(3.613 6.389)" fill="#fff"/>
      </g>
      <g id="Group_105" data-name="Group 105" transform="translate(583.511 530.052)">
        <path id="Path_106" data-name="Path 106" d="M3.93,5.859l6.186,6.927L5.365,18.108-5.519,5.859,5.365-6.389l4.751,5.322Z" transform="translate(5.519 6.389)" fill="#fff"/>
      </g>
      <g id="Group_106" data-name="Group 106" transform="translate(1019.599 454.451)">
        <path id="Path_107" data-name="Path 107" d="M2.573,5.859l-6.186,6.927,4.751,5.322L12.021,5.859,1.138-6.389-3.613-1.067Z" transform="translate(3.613 6.389)" fill="#fff"/>
      </g>
      <g id="Group_107" data-name="Group 107" transform="translate(486.45 530.052)">
        <path id="Path_108" data-name="Path 108" d="M3.93,5.859l6.186,6.927L5.365,18.108-5.519,5.859,5.365-6.389l4.751,5.322Z" transform="translate(5.519 6.389)" fill="#fff"/>
      </g>
      <g id="Group_108" data-name="Group 108" transform="translate(1116.661 454.451)">
        <path id="Path_109" data-name="Path 109" d="M2.573,5.859l-6.186,6.927,4.751,5.322L12.021,5.859,1.138-6.389-3.613-1.067Z" transform="translate(3.613 6.389)" fill="#fff"/>
      </g>
      <g id="Group_109" data-name="Group 109" transform="translate(389.388 530.052)">
        <path id="Path_110" data-name="Path 110" d="M3.93,5.859l6.186,6.927L5.365,18.108-5.519,5.859,5.365-6.389l4.751,5.322Z" transform="translate(5.519 6.389)" fill="#fff"/>
      </g>
      <g id="Group_110" data-name="Group 110" transform="translate(1213.722 454.451)">
        <path id="Path_111" data-name="Path 111" d="M2.573,5.859l-6.186,6.927,4.751,5.322L12.021,5.859,1.138-6.389-3.613-1.067Z" transform="translate(3.613 6.389)" fill="#fff"/>
      </g>
      <g id="Group_111" data-name="Group 111" transform="translate(292.327 530.052)">
        <path id="Path_112" data-name="Path 112" d="M3.93,5.859l6.186,6.927L5.365,18.108-5.519,5.859,5.365-6.389l4.751,5.322Z" transform="translate(5.519 6.389)" fill="#fff"/>
      </g>
      <g id="Group_112" data-name="Group 112" transform="translate(1310.783 454.451)">
        <path id="Path_113" data-name="Path 113" d="M2.573,5.859l-6.186,6.927,4.751,5.322L12.021,5.859,1.138-6.389-3.613-1.067Z" transform="translate(3.613 6.389)" fill="#fff"/>
      </g>
      <g id="Group_113" data-name="Group 113" transform="translate(195.266 530.052)">
        <path id="Path_114" data-name="Path 114" d="M3.93,5.859l6.186,6.927L5.365,18.108-5.519,5.859,5.365-6.389l4.751,5.322Z" transform="translate(5.519 6.389)" fill="#fff"/>
      </g>
      <g id="Group_114" data-name="Group 114" transform="translate(1407.844 454.451)">
        <path id="Path_115" data-name="Path 115" d="M2.573,5.859l-6.186,6.927,4.751,5.322L12.021,5.859,1.138-6.389-3.613-1.067Z" transform="translate(3.613 6.389)" fill="#fff"/>
      </g>
      <g id="Group_115" data-name="Group 115" transform="translate(98.205 530.052)">
        <path id="Path_116" data-name="Path 116" d="M3.93,5.859l6.186,6.927L5.365,18.108-5.519,5.859,5.365-6.389l4.751,5.322Z" transform="translate(5.519 6.389)" fill="#fff"/>
      </g>
      <g id="Group_116" data-name="Group 116" transform="translate(48.988 587.581)">
        <path id="Path_117" data-name="Path 117" d="M2.573,5.859l-6.186,6.927,4.751,5.322L12.021,5.859,1.138-6.389-3.613-1.067Z" transform="translate(3.613 6.389)" fill="#fff"/>
      </g>
      <g id="Group_117" data-name="Group 117" transform="translate(146.049 587.581)">
        <path id="Path_118" data-name="Path 118" d="M2.573,5.859l-6.186,6.927,4.751,5.322L12.021,5.859,1.138-6.389-3.613-1.067Z" transform="translate(3.613 6.389)" fill="#fff"/>
      </g>
      <g id="Group_118" data-name="Group 118" transform="translate(1360 663.182)">
        <path id="Path_119" data-name="Path 119" d="M3.93,5.859l6.186,6.927L5.365,18.108-5.519,5.859,5.365-6.389l4.751,5.322Z" transform="translate(5.519 6.389)" fill="#fff"/>
      </g>
      <g id="Group_119" data-name="Group 119" transform="translate(243.11 587.581)">
        <path id="Path_120" data-name="Path 120" d="M2.573,5.859l-6.186,6.927,4.751,5.322L12.021,5.859,1.138-6.389-3.613-1.067Z" transform="translate(3.613 6.389)" fill="#fff"/>
      </g>
      <g id="Group_120" data-name="Group 120" transform="translate(1262.939 663.182)">
        <path id="Path_121" data-name="Path 121" d="M3.93,5.859l6.186,6.927L5.365,18.108-5.519,5.859,5.365-6.389l4.751,5.322Z" transform="translate(5.519 6.389)" fill="#fff"/>
      </g>
      <g id="Group_121" data-name="Group 121" transform="translate(340.171 587.581)">
        <path id="Path_122" data-name="Path 122" d="M2.573,5.859l-6.186,6.927,4.751,5.322L12.021,5.859,1.138-6.389-3.613-1.067Z" transform="translate(3.613 6.389)" fill="#fff"/>
      </g>
      <g id="Group_122" data-name="Group 122" transform="translate(1165.878 663.182)">
        <path id="Path_123" data-name="Path 123" d="M3.93,5.859l6.186,6.927L5.365,18.108-5.519,5.859,5.365-6.389l4.751,5.322Z" transform="translate(5.519 6.389)" fill="#fff"/>
      </g>
      <g id="Group_123" data-name="Group 123" transform="translate(437.232 587.581)">
        <path id="Path_124" data-name="Path 124" d="M2.573,5.859l-6.186,6.927,4.751,5.322L12.021,5.859,1.138-6.389-3.613-1.067Z" transform="translate(3.613 6.389)" fill="#fff"/>
      </g>
      <g id="Group_124" data-name="Group 124" transform="translate(1068.817 663.182)">
        <path id="Path_125" data-name="Path 125" d="M3.93,5.859l6.186,6.927L5.365,18.108-5.519,5.859,5.365-6.389l4.751,5.322Z" transform="translate(5.519 6.389)" fill="#fff"/>
      </g>
      <g id="Group_125" data-name="Group 125" transform="translate(534.293 587.581)">
        <path id="Path_126" data-name="Path 126" d="M2.573,5.859l-6.186,6.927,4.751,5.322L12.021,5.859,1.138-6.389-3.613-1.067Z" transform="translate(3.613 6.389)" fill="#fff"/>
      </g>
      <g id="Group_126" data-name="Group 126" transform="translate(971.755 663.182)">
        <path id="Path_127" data-name="Path 127" d="M3.93,5.859l6.186,6.927L5.365,18.108-5.519,5.859,5.365-6.389l4.751,5.322Z" transform="translate(5.519 6.389)" fill="#fff"/>
      </g>
      <g id="Group_127" data-name="Group 127" transform="translate(631.354 587.581)">
        <path id="Path_128" data-name="Path 128" d="M2.573,5.859l-6.186,6.927,4.751,5.322L12.021,5.859,1.138-6.389-3.613-1.067Z" transform="translate(3.613 6.389)" fill="#fff"/>
      </g>
      <g id="Group_128" data-name="Group 128" transform="translate(874.694 663.182)">
        <path id="Path_129" data-name="Path 129" d="M3.93,5.859l6.186,6.927L5.365,18.108-5.519,5.859,5.365-6.389l4.751,5.322Z" transform="translate(5.519 6.389)" fill="#fff"/>
      </g>
      <g id="Group_129" data-name="Group 129" transform="translate(728.416 587.581)">
        <path id="Path_130" data-name="Path 130" d="M2.573,5.859l-6.186,6.927,4.751,5.322L12.021,5.859,1.138-6.389-3.613-1.067Z" transform="translate(3.613 6.389)" fill="#fff"/>
      </g>
      <g id="Group_130" data-name="Group 130" transform="translate(777.633 663.182)">
        <path id="Path_131" data-name="Path 131" d="M3.93,5.859l6.186,6.927L5.365,18.108-5.519,5.859,5.365-6.389l4.751,5.322Z" transform="translate(5.519 6.389)" fill="#fff"/>
      </g>
      <g id="Group_131" data-name="Group 131" transform="translate(825.477 587.581)">
        <path id="Path_132" data-name="Path 132" d="M2.573,5.859l-6.186,6.927,4.751,5.322L12.021,5.859,1.138-6.389-3.613-1.067Z" transform="translate(3.613 6.389)" fill="#fff"/>
      </g>
      <g id="Group_132" data-name="Group 132" transform="translate(680.572 663.182)">
        <path id="Path_133" data-name="Path 133" d="M3.93,5.859l6.186,6.927L5.365,18.108-5.519,5.859,5.365-6.389l4.751,5.322Z" transform="translate(5.519 6.389)" fill="#fff"/>
      </g>
      <g id="Group_133" data-name="Group 133" transform="translate(922.538 587.581)">
        <path id="Path_134" data-name="Path 134" d="M2.573,5.859l-6.186,6.927,4.751,5.322L12.021,5.859,1.138-6.389-3.613-1.067Z" transform="translate(3.613 6.389)" fill="#fff"/>
      </g>
      <g id="Group_134" data-name="Group 134" transform="translate(583.511 663.182)">
        <path id="Path_135" data-name="Path 135" d="M3.93,5.859l6.186,6.927L5.365,18.108-5.519,5.859,5.365-6.389l4.751,5.322Z" transform="translate(5.519 6.389)" fill="#fff"/>
      </g>
      <g id="Group_135" data-name="Group 135" transform="translate(1019.599 587.581)">
        <path id="Path_136" data-name="Path 136" d="M2.573,5.859l-6.186,6.927,4.751,5.322L12.021,5.859,1.138-6.389-3.613-1.067Z" transform="translate(3.613 6.389)" fill="#fff"/>
      </g>
      <g id="Group_136" data-name="Group 136" transform="translate(486.45 663.182)">
        <path id="Path_137" data-name="Path 137" d="M3.93,5.859l6.186,6.927L5.365,18.108-5.519,5.859,5.365-6.389l4.751,5.322Z" transform="translate(5.519 6.389)" fill="#fff"/>
      </g>
      <g id="Group_137" data-name="Group 137" transform="translate(1116.661 587.581)">
        <path id="Path_138" data-name="Path 138" d="M2.573,5.859l-6.186,6.927,4.751,5.322L12.021,5.859,1.138-6.389-3.613-1.067Z" transform="translate(3.613 6.389)" fill="#fff"/>
      </g>
      <g id="Group_138" data-name="Group 138" transform="translate(389.388 663.182)">
        <path id="Path_139" data-name="Path 139" d="M3.93,5.859l6.186,6.927L5.365,18.108-5.519,5.859,5.365-6.389l4.751,5.322Z" transform="translate(5.519 6.389)" fill="#fff"/>
      </g>
      <g id="Group_139" data-name="Group 139" transform="translate(1213.722 587.581)">
        <path id="Path_140" data-name="Path 140" d="M2.573,5.859l-6.186,6.927,4.751,5.322L12.021,5.859,1.138-6.389-3.613-1.067Z" transform="translate(3.613 6.389)" fill="#fff"/>
      </g>
      <g id="Group_140" data-name="Group 140" transform="translate(292.327 663.182)">
        <path id="Path_141" data-name="Path 141" d="M3.93,5.859l6.186,6.927L5.365,18.108-5.519,5.859,5.365-6.389l4.751,5.322Z" transform="translate(5.519 6.389)" fill="#fff"/>
      </g>
      <g id="Group_141" data-name="Group 141" transform="translate(1310.783 587.581)">
        <path id="Path_142" data-name="Path 142" d="M2.573,5.859l-6.186,6.927,4.751,5.322L12.021,5.859,1.138-6.389-3.613-1.067Z" transform="translate(3.613 6.389)" fill="#fff"/>
      </g>
      <g id="Group_142" data-name="Group 142" transform="translate(195.266 663.182)">
        <path id="Path_143" data-name="Path 143" d="M3.93,5.859l6.186,6.927L5.365,18.108-5.519,5.859,5.365-6.389l4.751,5.322Z" transform="translate(5.519 6.389)" fill="#fff"/>
      </g>
      <g id="Group_143" data-name="Group 143" transform="translate(1407.844 587.581)">
        <path id="Path_144" data-name="Path 144" d="M2.573,5.859l-6.186,6.927,4.751,5.322L12.021,5.859,1.138-6.389-3.613-1.067Z" transform="translate(3.613 6.389)" fill="#fff"/>
      </g>
      <g id="Group_144" data-name="Group 144" transform="translate(98.205 663.182)">
        <path id="Path_145" data-name="Path 145" d="M3.93,5.859l6.186,6.927L5.365,18.108-5.519,5.859,5.365-6.389l4.751,5.322Z" transform="translate(5.519 6.389)" fill="#fff"/>
      </g>
      <g id="Group_145" data-name="Group 145" transform="translate(48.988 720.711)">
        <path id="Path_146" data-name="Path 146" d="M2.573,5.859l-6.186,6.927,4.751,5.322L12.021,5.859,1.138-6.389-3.613-1.067Z" transform="translate(3.613 6.389)" fill="#fff"/>
      </g>
      <g id="Group_146" data-name="Group 146" transform="translate(146.049 720.711)">
        <path id="Path_147" data-name="Path 147" d="M2.573,5.859l-6.186,6.927,4.751,5.322L12.021,5.859,1.138-6.389-3.613-1.067Z" transform="translate(3.613 6.389)" fill="#fff"/>
      </g>
      <g id="Group_147" data-name="Group 147" transform="translate(1360 796.312)">
        <path id="Path_148" data-name="Path 148" d="M3.93,5.859l6.186,6.927L5.365,18.108-5.519,5.859,5.365-6.389l4.751,5.322Z" transform="translate(5.519 6.389)" fill="#fff"/>
      </g>
      <g id="Group_148" data-name="Group 148" transform="translate(243.11 720.711)">
        <path id="Path_149" data-name="Path 149" d="M2.573,5.859l-6.186,6.927,4.751,5.322L12.021,5.859,1.138-6.389-3.613-1.067Z" transform="translate(3.613 6.389)" fill="#fff"/>
      </g>
      <g id="Group_149" data-name="Group 149" transform="translate(1262.939 796.312)">
        <path id="Path_150" data-name="Path 150" d="M3.93,5.859l6.186,6.927L5.365,18.108-5.519,5.859,5.365-6.389l4.751,5.322Z" transform="translate(5.519 6.389)" fill="#fff"/>
      </g>
      <g id="Group_150" data-name="Group 150" transform="translate(340.171 720.711)">
        <path id="Path_151" data-name="Path 151" d="M2.573,5.859l-6.186,6.927,4.751,5.322L12.021,5.859,1.138-6.389-3.613-1.067Z" transform="translate(3.613 6.389)" fill="#fff"/>
      </g>
      <g id="Group_151" data-name="Group 151" transform="translate(1165.878 796.312)">
        <path id="Path_152" data-name="Path 152" d="M3.93,5.859l6.186,6.927L5.365,18.108-5.519,5.859,5.365-6.389l4.751,5.322Z" transform="translate(5.519 6.389)" fill="#fff"/>
      </g>
      <g id="Group_152" data-name="Group 152" transform="translate(437.232 720.711)">
        <path id="Path_153" data-name="Path 153" d="M2.573,5.859l-6.186,6.927,4.751,5.322L12.021,5.859,1.138-6.389-3.613-1.067Z" transform="translate(3.613 6.389)" fill="#fff"/>
      </g>
      <g id="Group_153" data-name="Group 153" transform="translate(1068.817 796.312)">
        <path id="Path_154" data-name="Path 154" d="M3.93,5.859l6.186,6.927L5.365,18.108-5.519,5.859,5.365-6.389l4.751,5.322Z" transform="translate(5.519 6.389)" fill="#fff"/>
      </g>
      <g id="Group_154" data-name="Group 154" transform="translate(534.293 720.711)">
        <path id="Path_155" data-name="Path 155" d="M2.573,5.859l-6.186,6.927,4.751,5.322L12.021,5.859,1.138-6.389-3.613-1.067Z" transform="translate(3.613 6.389)" fill="#fff"/>
      </g>
      <g id="Group_155" data-name="Group 155" transform="translate(971.755 796.312)">
        <path id="Path_156" data-name="Path 156" d="M3.93,5.859l6.186,6.927L5.365,18.108-5.519,5.859,5.365-6.389l4.751,5.322Z" transform="translate(5.519 6.389)" fill="#fff"/>
      </g>
      <g id="Group_156" data-name="Group 156" transform="translate(631.354 720.711)">
        <path id="Path_157" data-name="Path 157" d="M2.573,5.859l-6.186,6.927,4.751,5.322L12.021,5.859,1.138-6.389-3.613-1.067Z" transform="translate(3.613 6.389)" fill="#fff"/>
      </g>
      <g id="Group_157" data-name="Group 157" transform="translate(874.694 796.312)">
        <path id="Path_158" data-name="Path 158" d="M3.93,5.859l6.186,6.927L5.365,18.108-5.519,5.859,5.365-6.389l4.751,5.322Z" transform="translate(5.519 6.389)" fill="#fff"/>
      </g>
      <g id="Group_158" data-name="Group 158" transform="translate(728.416 720.711)">
        <path id="Path_159" data-name="Path 159" d="M2.573,5.859l-6.186,6.927,4.751,5.322L12.021,5.859,1.138-6.389-3.613-1.067Z" transform="translate(3.613 6.389)" fill="#fff"/>
      </g>
      <g id="Group_159" data-name="Group 159" transform="translate(777.633 796.312)">
        <path id="Path_160" data-name="Path 160" d="M3.93,5.859l6.186,6.927L5.365,18.108-5.519,5.859,5.365-6.389l4.751,5.322Z" transform="translate(5.519 6.389)" fill="#fff"/>
      </g>
      <g id="Group_160" data-name="Group 160" transform="translate(825.477 720.711)">
        <path id="Path_161" data-name="Path 161" d="M2.573,5.859l-6.186,6.927,4.751,5.322L12.021,5.859,1.138-6.389-3.613-1.067Z" transform="translate(3.613 6.389)" fill="#fff"/>
      </g>
      <g id="Group_161" data-name="Group 161" transform="translate(680.572 796.312)">
        <path id="Path_162" data-name="Path 162" d="M3.93,5.859l6.186,6.927L5.365,18.108-5.519,5.859,5.365-6.389l4.751,5.322Z" transform="translate(5.519 6.389)" fill="#fff"/>
      </g>
      <g id="Group_162" data-name="Group 162" transform="translate(922.538 720.711)">
        <path id="Path_163" data-name="Path 163" d="M2.573,5.859l-6.186,6.927,4.751,5.322L12.021,5.859,1.138-6.389-3.613-1.067Z" transform="translate(3.613 6.389)" fill="#fff"/>
      </g>
      <g id="Group_163" data-name="Group 163" transform="translate(583.511 796.312)">
        <path id="Path_164" data-name="Path 164" d="M3.93,5.859l6.186,6.927L5.365,18.108-5.519,5.859,5.365-6.389l4.751,5.322Z" transform="translate(5.519 6.389)" fill="#fff"/>
      </g>
      <g id="Group_164" data-name="Group 164" transform="translate(1019.599 720.711)">
        <path id="Path_165" data-name="Path 165" d="M2.573,5.859l-6.186,6.927,4.751,5.322L12.021,5.859,1.138-6.389-3.613-1.067Z" transform="translate(3.613 6.389)" fill="#fff"/>
      </g>
      <g id="Group_165" data-name="Group 165" transform="translate(486.45 796.312)">
        <path id="Path_166" data-name="Path 166" d="M3.93,5.859l6.186,6.927L5.365,18.108-5.519,5.859,5.365-6.389l4.751,5.322Z" transform="translate(5.519 6.389)" fill="#fff"/>
      </g>
      <g id="Group_166" data-name="Group 166" transform="translate(1116.661 720.711)">
        <path id="Path_167" data-name="Path 167" d="M2.573,5.859l-6.186,6.927,4.751,5.322L12.021,5.859,1.138-6.389-3.613-1.067Z" transform="translate(3.613 6.389)" fill="#fff"/>
      </g>
      <g id="Group_167" data-name="Group 167" transform="translate(389.388 796.312)">
        <path id="Path_168" data-name="Path 168" d="M3.93,5.859l6.186,6.927L5.365,18.108-5.519,5.859,5.365-6.389l4.751,5.322Z" transform="translate(5.519 6.389)" fill="#fff"/>
      </g>
      <g id="Group_168" data-name="Group 168" transform="translate(1213.722 720.711)">
        <path id="Path_169" data-name="Path 169" d="M2.573,5.859l-6.186,6.927,4.751,5.322L12.021,5.859,1.138-6.389-3.613-1.067Z" transform="translate(3.613 6.389)" fill="#fff"/>
      </g>
      <g id="Group_169" data-name="Group 169" transform="translate(292.327 796.312)">
        <path id="Path_170" data-name="Path 170" d="M3.93,5.859l6.186,6.927L5.365,18.108-5.519,5.859,5.365-6.389l4.751,5.322Z" transform="translate(5.519 6.389)" fill="#fff"/>
      </g>
      <g id="Group_170" data-name="Group 170" transform="translate(1310.783 720.711)">
        <path id="Path_171" data-name="Path 171" d="M2.573,5.859l-6.186,6.927,4.751,5.322L12.021,5.859,1.138-6.389-3.613-1.067Z" transform="translate(3.613 6.389)" fill="#fff"/>
      </g>
      <g id="Group_171" data-name="Group 171" transform="translate(195.266 796.312)">
        <path id="Path_172" data-name="Path 172" d="M3.93,5.859l6.186,6.927L5.365,18.108-5.519,5.859,5.365-6.389l4.751,5.322Z" transform="translate(5.519 6.389)" fill="#fff"/>
      </g>
      <g id="Group_172" data-name="Group 172" transform="translate(1407.844 720.711)">
        <path id="Path_173" data-name="Path 173" d="M2.573,5.859l-6.186,6.927,4.751,5.322L12.021,5.859,1.138-6.389-3.613-1.067Z" transform="translate(3.613 6.389)" fill="#fff"/>
      </g>
      <g id="Group_173" data-name="Group 173" transform="translate(98.205 796.312)">
        <path id="Path_174" data-name="Path 174" d="M3.93,5.859l6.186,6.927L5.365,18.108-5.519,5.859,5.365-6.389l4.751,5.322Z" transform="translate(5.519 6.389)" fill="#fff"/>
      </g>
      <g id="Group_174" data-name="Group 174" transform="translate(48.988 853.841)">
        <path id="Path_175" data-name="Path 175" d="M2.573,5.859l-6.186,6.927,4.751,5.322L12.021,5.859,1.138-6.389-3.613-1.067Z" transform="translate(3.613 6.389)" fill="#fff"/>
      </g>
      <g id="Group_175" data-name="Group 175" transform="translate(146.049 853.841)">
        <path id="Path_176" data-name="Path 176" d="M2.573,5.859l-6.186,6.927,4.751,5.322L12.021,5.859,1.138-6.389-3.613-1.067Z" transform="translate(3.613 6.389)" fill="#fff"/>
      </g>
      <g id="Group_176" data-name="Group 176" transform="translate(1360 929.442)">
        <path id="Path_177" data-name="Path 177" d="M3.93,5.859l6.186,6.927L5.365,18.108-5.519,5.859,5.365-6.389l4.751,5.322Z" transform="translate(5.519 6.389)" fill="#fff"/>
      </g>
      <g id="Group_177" data-name="Group 177" transform="translate(243.11 853.841)">
        <path id="Path_178" data-name="Path 178" d="M2.573,5.859l-6.186,6.927,4.751,5.322L12.021,5.859,1.138-6.389-3.613-1.067Z" transform="translate(3.613 6.389)" fill="#fff"/>
      </g>
      <g id="Group_178" data-name="Group 178" transform="translate(1262.939 929.442)">
        <path id="Path_179" data-name="Path 179" d="M3.93,5.859l6.186,6.927L5.365,18.108-5.519,5.859,5.365-6.389l4.751,5.322Z" transform="translate(5.519 6.389)" fill="#fff"/>
      </g>
      <g id="Group_179" data-name="Group 179" transform="translate(340.171 853.841)">
        <path id="Path_180" data-name="Path 180" d="M2.573,5.859l-6.186,6.927,4.751,5.322L12.021,5.859,1.138-6.389-3.613-1.067Z" transform="translate(3.613 6.389)" fill="#fff"/>
      </g>
      <g id="Group_180" data-name="Group 180" transform="translate(1165.878 929.442)">
        <path id="Path_181" data-name="Path 181" d="M3.93,5.859l6.186,6.927L5.365,18.108-5.519,5.859,5.365-6.389l4.751,5.322Z" transform="translate(5.519 6.389)" fill="#fff"/>
      </g>
      <g id="Group_181" data-name="Group 181" transform="translate(437.232 853.841)">
        <path id="Path_182" data-name="Path 182" d="M2.573,5.859l-6.186,6.927,4.751,5.322L12.021,5.859,1.138-6.389-3.613-1.067Z" transform="translate(3.613 6.389)" fill="#fff"/>
      </g>
      <g id="Group_182" data-name="Group 182" transform="translate(1068.817 929.442)">
        <path id="Path_183" data-name="Path 183" d="M3.93,5.859l6.186,6.927L5.365,18.108-5.519,5.859,5.365-6.389l4.751,5.322Z" transform="translate(5.519 6.389)" fill="#fff"/>
      </g>
      <g id="Group_183" data-name="Group 183" transform="translate(534.293 853.841)">
        <path id="Path_184" data-name="Path 184" d="M2.573,5.859l-6.186,6.927,4.751,5.322L12.021,5.859,1.138-6.389-3.613-1.067Z" transform="translate(3.613 6.389)" fill="#fff"/>
      </g>
      <g id="Group_184" data-name="Group 184" transform="translate(971.755 929.442)">
        <path id="Path_185" data-name="Path 185" d="M3.93,5.859l6.186,6.927L5.365,18.108-5.519,5.859,5.365-6.389l4.751,5.322Z" transform="translate(5.519 6.389)" fill="#fff"/>
      </g>
      <g id="Group_185" data-name="Group 185" transform="translate(631.354 853.841)">
        <path id="Path_186" data-name="Path 186" d="M2.573,5.859l-6.186,6.927,4.751,5.322L12.021,5.859,1.138-6.389-3.613-1.067Z" transform="translate(3.613 6.389)" fill="#fff"/>
      </g>
      <g id="Group_186" data-name="Group 186" transform="translate(874.694 929.442)">
        <path id="Path_187" data-name="Path 187" d="M3.93,5.859l6.186,6.927L5.365,18.108-5.519,5.859,5.365-6.389l4.751,5.322Z" transform="translate(5.519 6.389)" fill="#fff"/>
      </g>
      <g id="Group_187" data-name="Group 187" transform="translate(728.416 853.841)">
        <path id="Path_188" data-name="Path 188" d="M2.573,5.859l-6.186,6.927,4.751,5.322L12.021,5.859,1.138-6.389-3.613-1.067Z" transform="translate(3.613 6.389)" fill="#fff"/>
      </g>
      <g id="Group_188" data-name="Group 188" transform="translate(777.633 929.442)">
        <path id="Path_189" data-name="Path 189" d="M3.93,5.859l6.186,6.927L5.365,18.108-5.519,5.859,5.365-6.389l4.751,5.322Z" transform="translate(5.519 6.389)" fill="#fff"/>
      </g>
      <g id="Group_189" data-name="Group 189" transform="translate(825.477 853.841)">
        <path id="Path_190" data-name="Path 190" d="M2.573,5.859l-6.186,6.927,4.751,5.322L12.021,5.859,1.138-6.389-3.613-1.067Z" transform="translate(3.613 6.389)" fill="#fff"/>
      </g>
      <g id="Group_190" data-name="Group 190" transform="translate(680.572 929.442)">
        <path id="Path_191" data-name="Path 191" d="M3.93,5.859l6.186,6.927L5.365,18.108-5.519,5.859,5.365-6.389l4.751,5.322Z" transform="translate(5.519 6.389)" fill="#fff"/>
      </g>
      <g id="Group_191" data-name="Group 191" transform="translate(922.538 853.841)">
        <path id="Path_192" data-name="Path 192" d="M2.573,5.859l-6.186,6.927,4.751,5.322L12.021,5.859,1.138-6.389-3.613-1.067Z" transform="translate(3.613 6.389)" fill="#fff"/>
      </g>
      <g id="Group_192" data-name="Group 192" transform="translate(583.511 929.442)">
        <path id="Path_193" data-name="Path 193" d="M3.93,5.859l6.186,6.927L5.365,18.108-5.519,5.859,5.365-6.389l4.751,5.322Z" transform="translate(5.519 6.389)" fill="#fff"/>
      </g>
      <g id="Group_193" data-name="Group 193" transform="translate(1019.599 853.841)">
        <path id="Path_194" data-name="Path 194" d="M2.573,5.859l-6.186,6.927,4.751,5.322L12.021,5.859,1.138-6.389-3.613-1.067Z" transform="translate(3.613 6.389)" fill="#fff"/>
      </g>
      <g id="Group_194" data-name="Group 194" transform="translate(486.45 929.442)">
        <path id="Path_195" data-name="Path 195" d="M3.93,5.859l6.186,6.927L5.365,18.108-5.519,5.859,5.365-6.389l4.751,5.322Z" transform="translate(5.519 6.389)" fill="#fff"/>
      </g>
      <g id="Group_195" data-name="Group 195" transform="translate(1116.661 853.841)">
        <path id="Path_196" data-name="Path 196" d="M2.573,5.859l-6.186,6.927,4.751,5.322L12.021,5.859,1.138-6.389-3.613-1.067Z" transform="translate(3.613 6.389)" fill="#fff"/>
      </g>
      <g id="Group_196" data-name="Group 196" transform="translate(389.388 929.442)">
        <path id="Path_197" data-name="Path 197" d="M3.93,5.859l6.186,6.927L5.365,18.108-5.519,5.859,5.365-6.389l4.751,5.322Z" transform="translate(5.519 6.389)" fill="#fff"/>
      </g>
      <g id="Group_197" data-name="Group 197" transform="translate(1213.722 853.841)">
        <path id="Path_198" data-name="Path 198" d="M2.573,5.859l-6.186,6.927,4.751,5.322L12.021,5.859,1.138-6.389-3.613-1.067Z" transform="translate(3.613 6.389)" fill="#fff"/>
      </g>
      <g id="Group_198" data-name="Group 198" transform="translate(292.327 929.442)">
        <path id="Path_199" data-name="Path 199" d="M3.93,5.859l6.186,6.927L5.365,18.108-5.519,5.859,5.365-6.389l4.751,5.322Z" transform="translate(5.519 6.389)" fill="#fff"/>
      </g>
      <g id="Group_199" data-name="Group 199" transform="translate(1310.783 853.841)">
        <path id="Path_200" data-name="Path 200" d="M2.573,5.859l-6.186,6.927,4.751,5.322L12.021,5.859,1.138-6.389-3.613-1.067Z" transform="translate(3.613 6.389)" fill="#fff"/>
      </g>
      <g id="Group_200" data-name="Group 200" transform="translate(195.266 929.442)">
        <path id="Path_201" data-name="Path 201" d="M3.93,5.859l6.186,6.927L5.365,18.108-5.519,5.859,5.365-6.389l4.751,5.322Z" transform="translate(5.519 6.389)" fill="#fff"/>
      </g>
      <g id="Group_201" data-name="Group 201" transform="translate(1407.844 853.841)">
        <path id="Path_202" data-name="Path 202" d="M2.573,5.859l-6.186,6.927,4.751,5.322L12.021,5.859,1.138-6.389-3.613-1.067Z" transform="translate(3.613 6.389)" fill="#fff"/>
      </g>
      <g id="Group_202" data-name="Group 202" transform="translate(98.205 929.442)">
        <path id="Path_203" data-name="Path 203" d="M3.93,5.859l6.186,6.927L5.365,18.108-5.519,5.859,5.365-6.389l4.751,5.322Z" transform="translate(5.519 6.389)" fill="#fff"/>
      </g>
      <g id="Group_203" data-name="Group 203" transform="translate(48.988 986.971)">
        <path id="Path_204" data-name="Path 204" d="M2.573,5.859l-6.186,6.927,4.751,5.322L12.021,5.859,1.138-6.389-3.613-1.067Z" transform="translate(3.613 6.389)" fill="#fff"/>
      </g>
      <g id="Group_204" data-name="Group 204" transform="translate(146.049 986.971)">
        <path id="Path_205" data-name="Path 205" d="M2.573,5.859l-6.186,6.927,4.751,5.322L12.021,5.859,1.138-6.389-3.613-1.067Z" transform="translate(3.613 6.389)" fill="#fff"/>
      </g>
      <g id="Group_205" data-name="Group 205" transform="translate(1360 1062.572)">
        <path id="Path_206" data-name="Path 206" d="M3.93,5.859l6.186,6.927L5.365,18.108-5.519,5.859,5.365-6.389l4.751,5.322Z" transform="translate(5.519 6.389)" fill="#fff"/>
      </g>
      <g id="Group_206" data-name="Group 206" transform="translate(243.11 986.971)">
        <path id="Path_207" data-name="Path 207" d="M2.573,5.859l-6.186,6.927,4.751,5.322L12.021,5.859,1.138-6.389-3.613-1.067Z" transform="translate(3.613 6.389)" fill="#fff"/>
      </g>
      <g id="Group_207" data-name="Group 207" transform="translate(1262.939 1062.572)">
        <path id="Path_208" data-name="Path 208" d="M3.93,5.859l6.186,6.927L5.365,18.108-5.519,5.859,5.365-6.389l4.751,5.322Z" transform="translate(5.519 6.389)" fill="#fff"/>
      </g>
      <g id="Group_208" data-name="Group 208" transform="translate(340.171 986.971)">
        <path id="Path_209" data-name="Path 209" d="M2.573,5.859l-6.186,6.927,4.751,5.322L12.021,5.859,1.138-6.389-3.613-1.067Z" transform="translate(3.613 6.389)" fill="#fff"/>
      </g>
      <g id="Group_209" data-name="Group 209" transform="translate(1165.878 1062.572)">
        <path id="Path_210" data-name="Path 210" d="M3.93,5.859l6.186,6.927L5.365,18.108-5.519,5.859,5.365-6.389l4.751,5.322Z" transform="translate(5.519 6.389)" fill="#fff"/>
      </g>
      <g id="Group_210" data-name="Group 210" transform="translate(437.232 986.971)">
        <path id="Path_211" data-name="Path 211" d="M2.573,5.859l-6.186,6.927,4.751,5.322L12.021,5.859,1.138-6.389-3.613-1.067Z" transform="translate(3.613 6.389)" fill="#fff"/>
      </g>
      <g id="Group_211" data-name="Group 211" transform="translate(1068.817 1062.572)">
        <path id="Path_212" data-name="Path 212" d="M3.93,5.859l6.186,6.927L5.365,18.108-5.519,5.859,5.365-6.389l4.751,5.322Z" transform="translate(5.519 6.389)" fill="#fff"/>
      </g>
      <g id="Group_212" data-name="Group 212" transform="translate(534.293 986.971)">
        <path id="Path_213" data-name="Path 213" d="M2.573,5.859l-6.186,6.927,4.751,5.322L12.021,5.859,1.138-6.389-3.613-1.067Z" transform="translate(3.613 6.389)" fill="#fff"/>
      </g>
      <g id="Group_213" data-name="Group 213" transform="translate(971.755 1062.572)">
        <path id="Path_214" data-name="Path 214" d="M3.93,5.859l6.186,6.927L5.365,18.108-5.519,5.859,5.365-6.389l4.751,5.322Z" transform="translate(5.519 6.389)" fill="#fff"/>
      </g>
      <g id="Group_214" data-name="Group 214" transform="translate(631.354 986.971)">
        <path id="Path_215" data-name="Path 215" d="M2.573,5.859l-6.186,6.927,4.751,5.322L12.021,5.859,1.138-6.389-3.613-1.067Z" transform="translate(3.613 6.389)" fill="#fff"/>
      </g>
      <g id="Group_215" data-name="Group 215" transform="translate(874.694 1062.572)">
        <path id="Path_216" data-name="Path 216" d="M3.93,5.859l6.186,6.927L5.365,18.108-5.519,5.859,5.365-6.389l4.751,5.322Z" transform="translate(5.519 6.389)" fill="#fff"/>
      </g>
      <g id="Group_216" data-name="Group 216" transform="translate(728.416 986.971)">
        <path id="Path_217" data-name="Path 217" d="M2.573,5.859l-6.186,6.927,4.751,5.322L12.021,5.859,1.138-6.389-3.613-1.067Z" transform="translate(3.613 6.389)" fill="#fff"/>
      </g>
      <g id="Group_217" data-name="Group 217" transform="translate(777.633 1062.572)">
        <path id="Path_218" data-name="Path 218" d="M3.93,5.859l6.186,6.927L5.365,18.108-5.519,5.859,5.365-6.389l4.751,5.322Z" transform="translate(5.519 6.389)" fill="#fff"/>
      </g>
      <g id="Group_218" data-name="Group 218" transform="translate(825.477 986.971)">
        <path id="Path_219" data-name="Path 219" d="M2.573,5.859l-6.186,6.927,4.751,5.322L12.021,5.859,1.138-6.389-3.613-1.067Z" transform="translate(3.613 6.389)" fill="#fff"/>
      </g>
      <g id="Group_219" data-name="Group 219" transform="translate(680.572 1062.572)">
        <path id="Path_220" data-name="Path 220" d="M3.93,5.859l6.186,6.927L5.365,18.108-5.519,5.859,5.365-6.389l4.751,5.322Z" transform="translate(5.519 6.389)" fill="#fff"/>
      </g>
      <g id="Group_220" data-name="Group 220" transform="translate(922.538 986.971)">
        <path id="Path_221" data-name="Path 221" d="M2.573,5.859l-6.186,6.927,4.751,5.322L12.021,5.859,1.138-6.389-3.613-1.067Z" transform="translate(3.613 6.389)" fill="#fff"/>
      </g>
      <g id="Group_221" data-name="Group 221" transform="translate(583.511 1062.572)">
        <path id="Path_222" data-name="Path 222" d="M3.93,5.859l6.186,6.927L5.365,18.108-5.519,5.859,5.365-6.389l4.751,5.322Z" transform="translate(5.519 6.389)" fill="#fff"/>
      </g>
      <g id="Group_222" data-name="Group 222" transform="translate(1019.599 986.971)">
        <path id="Path_223" data-name="Path 223" d="M2.573,5.859l-6.186,6.927,4.751,5.322L12.021,5.859,1.138-6.389-3.613-1.067Z" transform="translate(3.613 6.389)" fill="#fff"/>
      </g>
      <g id="Group_223" data-name="Group 223" transform="translate(486.45 1062.572)">
        <path id="Path_224" data-name="Path 224" d="M3.93,5.859l6.186,6.927L5.365,18.108-5.519,5.859,5.365-6.389l4.751,5.322Z" transform="translate(5.519 6.389)" fill="#fff"/>
      </g>
      <g id="Group_224" data-name="Group 224" transform="translate(1116.661 986.971)">
        <path id="Path_225" data-name="Path 225" d="M2.573,5.859l-6.186,6.927,4.751,5.322L12.021,5.859,1.138-6.389-3.613-1.067Z" transform="translate(3.613 6.389)" fill="#fff"/>
      </g>
      <g id="Group_225" data-name="Group 225" transform="translate(389.388 1062.572)">
        <path id="Path_226" data-name="Path 226" d="M3.93,5.859l6.186,6.927L5.365,18.108-5.519,5.859,5.365-6.389l4.751,5.322Z" transform="translate(5.519 6.389)" fill="#fff"/>
      </g>
      <g id="Group_226" data-name="Group 226" transform="translate(1213.722 986.971)">
        <path id="Path_227" data-name="Path 227" d="M2.573,5.859l-6.186,6.927,4.751,5.322L12.021,5.859,1.138-6.389-3.613-1.067Z" transform="translate(3.613 6.389)" fill="#fff"/>
      </g>
      <g id="Group_227" data-name="Group 227" transform="translate(292.327 1062.572)">
        <path id="Path_228" data-name="Path 228" d="M3.93,5.859l6.186,6.927L5.365,18.108-5.519,5.859,5.365-6.389l4.751,5.322Z" transform="translate(5.519 6.389)" fill="#fff"/>
      </g>
      <g id="Group_228" data-name="Group 228" transform="translate(1310.783 986.971)">
        <path id="Path_229" data-name="Path 229" d="M2.573,5.859l-6.186,6.927,4.751,5.322L12.021,5.859,1.138-6.389-3.613-1.067Z" transform="translate(3.613 6.389)" fill="#fff"/>
      </g>
      <g id="Group_229" data-name="Group 229" transform="translate(195.266 1062.572)">
        <path id="Path_230" data-name="Path 230" d="M3.93,5.859l6.186,6.927L5.365,18.108-5.519,5.859,5.365-6.389l4.751,5.322Z" transform="translate(5.519 6.389)" fill="#fff"/>
      </g>
      <g id="Group_230" data-name="Group 230" transform="translate(1407.844 986.971)">
        <path id="Path_231" data-name="Path 231" d="M2.573,5.859l-6.186,6.927,4.751,5.322L12.021,5.859,1.138-6.389-3.613-1.067Z" transform="translate(3.613 6.389)" fill="#fff"/>
      </g>
      <g id="Group_231" data-name="Group 231" transform="translate(98.205 1062.572)">
        <path id="Path_232" data-name="Path 232" d="M3.93,5.859l6.186,6.927L5.365,18.108-5.519,5.859,5.365-6.389l4.751,5.322Z" transform="translate(5.519 6.389)" fill="#fff"/>
      </g>
      <g id="Group_232" data-name="Group 232" transform="translate(98.205 263.792)">
        <path id="Path_233" data-name="Path 233" d="M3.93,5.859l6.186,6.927L5.365,18.108-5.519,5.859,5.365-6.389l4.751,5.322Z" transform="translate(5.519 6.389)" fill="#fff"/>
      </g>
    </g>
  </g>
</svg>
