<svg xmlns="http://www.w3.org/2000/svg" xmlns:xlink="http://www.w3.org/1999/xlink" width="89.35" height="100" viewBox="0 0 89.35 100">
  <defs>
    <clipPath id="clip-path">
      <rect id="Rectangle_36" data-name="Rectangle 36" width="89.35" height="100" fill="none"/>
    </clipPath>
  </defs>
  <g id="Group_306" data-name="Group 306" transform="translate(0 0.004)">
    <g id="Group_305" data-name="Group 305" transform="translate(0 -0.004)" clip-path="url(#clip-path)">
      <path id="Path_291" data-name="Path 291" d="M89.349,49.935c-.167-14.283-5.051-26.263-14.5-35.592C65.5,4.995,53.74.168,39.885,0H5.176A5.181,5.181,0,0,0,0,5.171V94.821A5.181,5.181,0,0,0,5.176,100H39.912c13.842-.171,25.585-5.065,34.906-14.551,9.476-9.2,14.366-21.121,14.532-35.44v-.07Zm-34.675,11.6a2.551,2.551,0,0,1-2.548,2.549H29.221a2.552,2.552,0,0,1-2.549-2.549V38.628a2.552,2.552,0,0,1,2.549-2.548H52.126a2.551,2.551,0,0,1,2.548,2.548Z" transform="translate(0 0.004)" fill="#161615"/>
    </g>
  </g>
</svg>
