<svg id="Group_308" data-name="Group 308" xmlns="http://www.w3.org/2000/svg" xmlns:xlink="http://www.w3.org/1999/xlink" width="161" height="106.221" viewBox="0 0 161 106.221">
  <defs>
    <clipPath id="clip-path">
      <rect id="Rectangle_37" data-name="Rectangle 37" width="161" height="106.221" fill="none"/>
    </clipPath>
  </defs>
  <g id="Group_307" data-name="Group 307" clip-path="url(#clip-path)">
    <path id="Path_292" data-name="Path 292" d="M31.153,693.353h-3.97v17.565H31.36c4.45,0,7.567-2.465,7.567-9.039,0-6.3-3.116-8.526-7.773-8.526m.207,17.458H27.291v-17.35h3.863c5.158,0,7.665,2.753,7.665,8.419,0,3.1-.7,5.421-2.085,6.912a7,7,0,0,1-5.374,2.019m-.207-17.458h-3.97v17.565H31.36c4.45,0,7.567-2.465,7.567-9.039,0-6.3-3.116-8.526-7.773-8.526m.207,17.458H27.291v-17.35h3.863c5.158,0,7.665,2.753,7.665,8.419,0,3.1-.7,5.421-2.085,6.912a7,7,0,0,1-5.374,2.019m-.207-17.458h-3.97v17.565H31.36c4.45,0,7.567-2.465,7.567-9.039,0-6.3-3.116-8.526-7.773-8.526m.207,17.458H27.291v-17.35h3.863c5.158,0,7.665,2.753,7.665,8.419,0,3.1-.7,5.421-2.085,6.912a7,7,0,0,1-5.374,2.019" transform="translate(-24.095 -614.592)" fill="#fff"/>
    <path id="Path_293" data-name="Path 293" d="M15.544,673.211c-1.9-2.062-4.649-3.108-8.177-3.108H.108a.108.108,0,0,0-.108.108v22.632a.108.108,0,0,0,.108.108H7.4a10.146,10.146,0,0,0,8.254-3.622,13.087,13.087,0,0,0,2.571-8.2,11.448,11.448,0,0,0-2.682-7.922m-8.279,17.1H3.088V672.744h3.97c4.657,0,7.773,2.226,7.773,8.526,0,6.574-3.116,9.039-7.567,9.039" transform="translate(0 -593.983)" fill="#fff"/>
    <path id="Path_294" data-name="Path 294" d="M199.755,683.176a5.982,5.982,0,0,1-2.066,4.606,9.128,9.128,0,0,1-6.054,1.9,8.088,8.088,0,0,1-6.217-2.378,5.888,5.888,0,0,1-1.594-4.415.107.107,0,0,1,.084-.1l2.877-.616a.106.106,0,0,1,.09.021.1.1,0,0,1,.04.083c.018,1.763.664,4.72,4.788,4.72,2.91,0,4.789-1.315,4.789-3.351,0-2.492-2.336-3.334-5.04-4.307-3.286-1.183-7.012-2.525-7.012-7.333a5.636,5.636,0,0,1,1.968-4.47,8.209,8.209,0,0,1,5.364-1.665,8.516,8.516,0,0,1,6.269,2.248,5.19,5.19,0,0,1,1.44,3.925.106.106,0,0,1-.084.1l-2.877.617a.112.112,0,0,1-.088-.02.107.107,0,0,1-.041-.081c-.1-2.726-1.7-4.109-4.756-4.109-2.462,0-3.932,1.163-3.932,3.112,0,2.777,2.613,3.745,5.378,4.769,3.128,1.158,6.674,2.471,6.674,6.735" transform="translate(-162.93 -590.239)" fill="#fff"/>
    <path id="Path_295" data-name="Path 295" d="M371.317,692.78c0,1.374-.549,3.68-4.225,3.68-2.733,0-5.153-1.3-7.1-2.34a8.054,8.054,0,0,0-2.943-1.2,4.907,4.907,0,0,0-2.821,1.483c-.214.194-.453.42-.658.614l-.052.051a.109.109,0,0,1-.149,0l-.918-.851a.1.1,0,0,1-.02-.025l-.533-.5a.1.1,0,0,1-.034-.077.106.106,0,0,1,.032-.078,13.837,13.837,0,0,1,4.274-3.2c1.046-.53,2-.943,2.846-1.308a20.728,20.728,0,0,0,3.374-1.7c1.931-1.3,3.718-3.311,3.718-9.19,0-6.448-2.149-9.583-6.571-9.583-4.5,0-6.877,3.161-6.877,9.138,0,4.5,1.4,7.717,3.842,8.838a.105.105,0,0,1,.057.066.109.109,0,0,1-.009.086l-1.13,1.951a.107.107,0,0,1-.126.049c-3.842-1.223-6.136-5.344-6.136-11.024a13.109,13.109,0,0,1,2.6-8.514,9.688,9.688,0,0,1,7.744-3.271c6.517,0,10.106,4.259,10.106,11.99,0,7.232-3.192,10.029-5.611,11.5a.111.111,0,0,1-.031.024l-.012.007c-.018.009-.036.018-.053.028a19.925,19.925,0,0,1-2.808,1.36c-.256.113-.522.229-.808.349a16.305,16.305,0,0,1,4.381,1.728,9.3,9.3,0,0,0,3.643,1.335,1.424,1.424,0,0,0,1.526-1.628,4.938,4.938,0,0,0-.056-.642l-.011-.093a.107.107,0,0,1,.026-.084.109.109,0,0,1,.081-.036h1.259a.108.108,0,0,1,.107.1l.018.174a6.77,6.77,0,0,1,.051.791" transform="translate(-309.5 -590.239)" fill="#fff"/>
    <path id="Path_296" data-name="Path 296" d="M574.3,670.211v14.071c0,5.9-3.224,9.148-9.078,9.148-5.895,0-9.01-3.258-9.01-9.42v-13.8a.108.108,0,0,1,.107-.108h2.98a.109.109,0,0,1,.108.108v13.8a7.909,7.909,0,0,0,1.114,4.582c.948,1.364,2.552,2.056,4.769,2.056,3.974,0,5.989-2.142,5.989-6.365V670.211a.107.107,0,0,1,.107-.108h2.807a.108.108,0,0,1,.108.108" transform="translate(-493.032 -593.983)" fill="#fff"/>
    <path id="Path_297" data-name="Path 297" d="M748.119,692.8l-8.8-22.632a.107.107,0,0,0-.1-.069h-2.26a.107.107,0,0,0-.1.069L728.094,692.8a.1.1,0,0,0,.011.1.107.107,0,0,0,.089.046h3.013a.107.107,0,0,0,.1-.069l2.507-6.539h8.31l2.507,6.539a.107.107,0,0,0,.1.069h3.288a.107.107,0,0,0,.1-.146m-7.035-9.176h-6.228l1.964-5.128c.422-1.1.835-2.4,1.166-3.471.358,1.173.76,2.472,1.166,3.471Z" transform="translate(-645.38 -593.983)" fill="#fff"/>
    <path id="Path_298" data-name="Path 298" d="M1113.651,690.208v2.635a.107.107,0,0,1-.108.108h-14.037a.107.107,0,0,1-.108-.108V670.212a.108.108,0,0,1,.108-.108h13.832a.108.108,0,0,1,.108.108v2.636a.108.108,0,0,1-.108.108h-10.747V680h8.931a.108.108,0,0,1,.108.107v2.638a.108.108,0,0,1-.108.107h-8.931v7.25h10.952a.107.107,0,0,1,.108.108" transform="translate(-974.513 -593.984)" fill="#fff"/>
    <path id="Path_299" data-name="Path 299" d="M1272.422,673.212c-1.9-2.062-4.65-3.108-8.178-3.108h-7.258a.108.108,0,0,0-.108.108v22.632a.107.107,0,0,0,.108.108h7.293a10.146,10.146,0,0,0,8.254-3.622,13.087,13.087,0,0,0,2.571-8.2,11.443,11.443,0,0,0-2.682-7.922m-8.279,16.99h-4.07v-17.35h3.864c5.158,0,7.665,2.753,7.665,8.419,0,3.1-.7,5.421-2.085,6.912a7,7,0,0,1-5.374,2.019" transform="translate(-1114.104 -593.984)" fill="#fff"/>
    <path id="Path_300" data-name="Path 300" d="M947.2,692.785l-5.045-10.2c3.706-1.324,3.706-4.546,3.706-6.285,0-4.057-2.677-6.2-7.742-6.2H931.2a.108.108,0,0,0-.108.108v22.632a.107.107,0,0,0,.108.108h2.978a.107.107,0,0,0,.108-.108v-9.651h3.782c.341,0,.685-.013,1.049-.035l4.888,9.725a.107.107,0,0,0,.1.059h3a.107.107,0,0,0,.1-.156m-4.773-16.274c0,2.72-1.435,3.933-4.652,3.933h-3.487v-7.592h3.487c3.26,0,4.652,1.095,4.652,3.659" transform="translate(-825.327 -593.983)" fill="#fff"/>
    <path id="Path_301" data-name="Path 301" d="M517.245,31.48c-.106-9-3.184-16.555-9.142-22.436A30.614,30.614,0,0,0,486.065,0h-21.88a3.266,3.266,0,0,0-3.263,3.262V59.774a3.266,3.266,0,0,0,3.263,3.263h21.9a30.288,30.288,0,0,0,22-9.172c5.973-5.8,9.056-13.314,9.161-22.34V31.48Zm-21.858,7.311a1.608,1.608,0,0,1-1.607,1.607H479.342a1.609,1.609,0,0,1-1.607-1.607V24.352a1.609,1.609,0,0,1,1.607-1.606h14.439a1.608,1.608,0,0,1,1.607,1.606Z" transform="translate(-408.564)" fill="#fff"/>
  </g>
</svg>
