<svg id="Group_304" data-name="Group 304" xmlns="http://www.w3.org/2000/svg" xmlns:xlink="http://www.w3.org/1999/xlink" width="199.913" height="146.37" viewBox="0 0 199.913 146.37">
  <defs>
    <clipPath id="clip-path">
      <rect id="Rectangle_35" data-name="Rectangle 35" width="199.913" height="146.37" fill="none"/>
    </clipPath>
  </defs>
  <g id="Group_303" data-name="Group 303" clip-path="url(#clip-path)">
    <path id="Path_276" data-name="Path 276" d="M185.281,34.848C179.947,9.387,155.474,2.711,140.961,2.93c-15.465.23-16.131,10.515-16.486,16.039-.112,1.753-.251,3.934-.788,4.635-1.266,1.653-6.4,1.676-10.52,1.694-3.917.016-7.975.036-11.563,1.027A21.883,21.883,0,0,0,91.3,32.847a24.607,24.607,0,0,0-15.917-4.936c-5.668-9.262-17.386-14.292-29.214-11.695C32.272,19.3,23.061,31.828,24.685,44.779a20.042,20.042,0,0,0-11.629,22.5,19.421,19.421,0,0,0,.762,2.521L3.45,71.91c9.912,48.629,47.922,81.942,113.581,68.559s87.6-58.915,77.687-107.545Z" fill="#005926"/>
    <path id="Path_277" data-name="Path 277" d="M185.281,34.848C179.947,9.387,155.474,2.711,140.961,2.93c-15.465.23-16.131,10.515-16.486,16.039-.112,1.753-.251,3.934-.788,4.635-1.266,1.653-6.4,1.676-10.52,1.694-3.917.016-7.975.036-11.563,1.027A21.883,21.883,0,0,0,91.3,32.847a24.607,24.607,0,0,0-15.917-4.936c-5.668-9.262-17.386-14.292-29.214-11.695C32.272,19.3,23.061,31.828,24.685,44.779a20.042,20.042,0,0,0-11.629,22.5,19.421,19.421,0,0,0,.762,2.521L3.45,71.91c9.912,48.629,47.922,81.942,113.581,68.559s87.6-58.915,77.687-107.545Z" fill="none" stroke="#005926" stroke-width="5.849"/>
    <path id="Path_278" data-name="Path 278" d="M194.718,32.925l-9.437,1.923C180.03,9.786,156.234,2.925,141.649,2.925h-.007c-.23,0-.456,0-.681.005-15.466.23-16.131,10.515-16.486,16.039-.112,1.753-.252,3.934-.788,4.635-1.266,1.653-6.4,1.676-10.52,1.694-3.917.016-7.975.036-11.564,1.027a19.934,19.934,0,0,0-3.924,1.561l.024-.046c-.175.1-.335.195-.5.293-.151.083-.3.17-.443.256-.278.165-.546.331-.809.5-.1.064-.2.124-.3.189a24.307,24.307,0,0,0-4.5,3.671,24.511,24.511,0,0,0-12.989-4.787,12.222,12.222,0,0,0-2.579-.052c-.068,0-.136,0-.2,0A26.828,26.828,0,0,0,52.413,15.535a29.149,29.149,0,0,0-6.247.681C32.308,19.294,23.111,31.763,24.675,44.678a14.813,14.813,0,0,0-3.389,2.037,19.887,19.887,0,0,0-8.231,20.561,19.581,19.581,0,0,0,.763,2.521L3.45,71.91c8.415,41.286,37.09,71.535,85.737,71.535a139.515,139.515,0,0,0,27.844-2.976c65.659-13.383,87.6-58.915,77.687-107.544M181.371,98.064a78.9,78.9,0,0,1-24.9,23.912c-11.132,6.908-24.631,12.012-40.122,15.169a136.753,136.753,0,0,1-27.166,2.909c-22.47,0-41.211-6.537-55.7-19.428C20.909,109.437,11.965,93.556,7.5,74.546l7-1.426s3.87-.789,3.867-.8l3.177-.647C13.35,47.473,36.19,45.889,36.19,45.889a13.937,13.937,0,0,0-5.442-2.049c-.518-4.046-.858-17.077,14.491-23.878.544-.16,1.094-.309,1.655-.433a25.758,25.758,0,0,1,5.519-.6,23.579,23.579,0,0,1,19.505,9.894,16.173,16.173,0,0,0-4.531,2.917s14.948-2.005,20.245,7.067a9.837,9.837,0,0,0,.257,6.119c.417-2.96,2.519-5.932,4.05-7.757L93.556,35.4a.342.342,0,0,0,.038-.041l.2-.223a18.468,18.468,0,0,1,8.708-5.544c3.164-.874,6.982-.889,10.676-.9,6.6-.029,11.077-.256,13.2-3.025,1.081-1.413,1.287-3.483,1.479-6.478.078-1.221.158-2.445.348-3.655a13.192,13.192,0,0,1,1.031-3.58,8.469,8.469,0,0,1,2.371-3.03,11.187,11.187,0,0,1,4.368-2.02,17.911,17.911,0,0,1,6.9-.338c.8.119,1.586.284,2.373.444q.63.128,1.255.272,1.419.327,2.814.741,1.587.469,3.138,1.048,1.709.638,3.362,1.408,1.784.831,3.488,1.818a41.73,41.73,0,0,1,3.514,2.283,39.607,39.607,0,0,1,3.44,2.8,38.359,38.359,0,0,1,6.266,7.356,40.524,40.524,0,0,1,2.628,4.663,44.183,44.183,0,0,1,2.157,5.388q.269.819.507,1.646l.658,3.3,5.477-1.15,2-.409,6.066-1.236c4.019,23.133.359,44.208-10.653,61.129" fill="#bfce18"/>
    <path id="Path_279" data-name="Path 279" d="M124.18,33.741l-1.561.237a23.118,23.118,0,0,1-3.371.22c-6.242,0-21.087-1.953-24.1-20.037l-.194-1.17,1.17-.187a31.2,31.2,0,0,1,4.556-.3c6.585,0,22.176,1.877,24.726,19.26l.627,4.278Z" fill="#bfce18"/>
    <path id="Path_280" data-name="Path 280" d="M100.684,13.687c7.247,0,21.194,2.141,23.558,18.253C121.857,28.979,113,22.506,104.7,20.174c6.513,4.311,14.8,9.766,17.745,12.638a22.16,22.16,0,0,1-3.195.207c-6.728,0-20.159-2.387-22.933-19.051a30.373,30.373,0,0,1,4.37-.281m0-2.358h0a32.6,32.6,0,0,0-4.744.311l-2.341.376.389,2.339c1.331,8,5.07,13.856,11.112,17.419a28.106,28.106,0,0,0,14.147,3.6,24.127,24.127,0,0,0,3.55-.233l.89-.136,4.144,5.144L127,34.5l.477-.072-.569-.555-.335-2.28c-2.684-18.293-19-20.268-25.891-20.268" fill="#005926"/>
    <path id="Path_281" data-name="Path 281" d="M150.178,21.754a4.439,4.439,0,1,1,5.3,3.368,4.424,4.424,0,0,1-5.3-3.368m7.636-1.706a3.386,3.386,0,1,0-6.608,1.477,3.386,3.386,0,1,0,6.608-1.477m-.734,2.475-1.1.244-1.431-1.68-.7.157.427,1.9-1.009.226-1.007-4.509,2.189-.489c1.039-.232,1.793-.2,2.059.987.186.831-.166,1.267-.951,1.5ZM154.9,20.3c.5-.113.764-.286.637-.854-.1-.461-.684-.33-1.12-.232l-.974.217.255,1.137Z" fill="#fff"/>
    <path id="Path_282" data-name="Path 282" d="M132.653,85.348A1.71,1.71,0,0,0,130.5,84.1a4.149,4.149,0,0,1-2.793-.417,4.685,4.685,0,0,1-1.8-2.92l-5.915-25.729L107.206,58.09v0a1.663,1.663,0,0,0,.7,3.252v0a.041.041,0,0,0,.015,0c.034-.009.069,0,.1-.011l.026-.007a3.947,3.947,0,0,1,2.889.356,3.846,3.846,0,0,1,1.684,2.622l2.391,10.635a11.4,11.4,0,0,1-.619,7.326,6.944,6.944,0,0,1-5.094,4.222,5.487,5.487,0,0,1-4.555-.814,6.964,6.964,0,0,1-2.695-4.415l-4.73-21.047-3.461.773A11.12,11.12,0,0,1,87.889,66.9c.015.006.03.006.039.014a3.9,3.9,0,0,1,1.754,2.8l2.906,12.927a18.559,18.559,0,0,0,3,7.028,9.822,9.822,0,0,0,4.577,3.606,10.7,10.7,0,0,0,5.872.132,13.171,13.171,0,0,0,6-3.188,23.327,23.327,0,0,0,5.029-7.458,39.08,39.08,0,0,0,2.649,7.223l11.6-2.6a1.726,1.726,0,0,0,1.339-2.034" fill="#fff"/>
    <path id="Path_283" data-name="Path 283" d="M164.345,51.753c-.379-1.219-3.208-.483-3.058.687q1.788,9.141-3.027,10.222a3.692,3.692,0,0,1-3.027-.5,4.653,4.653,0,0,1-1.756-2.947l-4.643-20.659,8.65-1.936a1.931,1.931,0,1,0-.854-3.763l-8.64,1.938L144.98,21.4l-3.09.7c.9,7.2-1.388,13.332-8.137,16.681l.675,3L139.67,40.6l4.5,20.023a10.888,10.888,0,0,0,2.408,4.8A8.848,8.848,0,0,0,150.74,68.2a10.5,10.5,0,0,0,5.312.039A11.374,11.374,0,0,0,161.6,65.3a10.7,10.7,0,0,0,3-5.446,19.464,19.464,0,0,0-.252-8.1" fill="#fff"/>
    <path id="Path_284" data-name="Path 284" d="M141.315,67.392l-.5.11a3.3,3.3,0,0,1-2.26-.125,2.2,2.2,0,0,1-1.094-1.561l-5.881-26.131c-4.074,1.458-9.087,2.982-12.963,1.852a2.317,2.317,0,0,0-1.15,2.328,1.864,1.864,0,0,0,2.142,1.563l.018,0a3.836,3.836,0,0,1,2.743.391,3.721,3.721,0,0,1,1.638,2.515l4.107,18.276a4.339,4.339,0,0,1-.072,2.934,3.155,3.155,0,0,1-2.219,1.339l-1.2.267a1.757,1.757,0,0,0-1.545,2.239c.2.9.455,1.379,1.38,1.167l17.591-3.934a1.656,1.656,0,1,0-.734-3.227" fill="#fff"/>
    <path id="Path_285" data-name="Path 285" d="M55.773,38.526a4.532,4.532,0,0,0,.894,7.078,4.766,4.766,0,0,0,3.7.57,4.971,4.971,0,0,0,3.327-2.561,6.421,6.421,0,0,0,.563-4.745,7.433,7.433,0,0,0-3.8-5.055c-2.016-1.13-4.564-1.341-7.626-.65a16.326,16.326,0,0,0-7.859,3.891,13.448,13.448,0,0,0-3.84,7.343,23.559,23.559,0,0,0,.414,10.46l.3,1.316-3.57.8a1.926,1.926,0,1,0,.85,3.755l3.521-.791,5.143,22.626a2.508,2.508,0,0,1-.165,1.974,3.085,3.085,0,0,1-1.945.972s-1.12.253-1.187.267A1.709,1.709,0,0,0,43.3,87.75a1.581,1.581,0,0,0,1.73,1.314l18.771-4.2.236-.055a1.658,1.658,0,1,0-.736-3.23l-3.488.783a2.7,2.7,0,0,1-1.95-.109,2.785,2.785,0,0,1-.932-1.762L51.851,57.875l6.281-1.408a1.924,1.924,0,1,0-.852-3.75L51,54.124l-1.414-6.206a19.1,19.1,0,0,1-.4-6.339,6.24,6.24,0,0,1,1.46-3.5,5.309,5.309,0,0,1,2.922-1.8,3.917,3.917,0,0,1,2.2.018.926.926,0,0,1,.691.682c.088.37-.136.888-.692,1.545" fill="#fff"/>
    <path id="Path_286" data-name="Path 286" d="M91.068,55.028A5.934,5.934,0,0,0,88.2,51.019a7.282,7.282,0,0,0-5.422-.577A9.756,9.756,0,0,0,76.7,54.81a16.2,16.2,0,0,0-2.319,9.1l-2.233-9.929L60.117,56.678l-.093.019a1.616,1.616,0,1,0,.717,3.149l.186-.044a4.008,4.008,0,0,1,3.178.41,4.87,4.87,0,0,1,1.825,3.172l4.325,19.254a2.567,2.567,0,0,1-2.107,3.1L66.985,86a1.657,1.657,0,1,0,.738,3.228l.749-.122,16.855-3.818.371-.082A1.714,1.714,0,0,0,87,83.172a1.686,1.686,0,0,0-2.044-1.235l-2.46.556a2.512,2.512,0,0,1-1.946-.233,2.569,2.569,0,0,1-1.079-1.707l-1.579-7.024a31.966,31.966,0,0,1-.649-9.984,16.467,16.467,0,0,1,2.394-7.656c1.714-2.623,5.743-3.579,7.516-.683a5.5,5.5,0,0,1,.687,2.243,4.664,4.664,0,0,1-1.985,4.03c-.884.709-2.546.784-2.888.193-.1-.164-.158-.816.126-.906,2.247-.708,2.758-2.251,1.993-3.386a2.608,2.608,0,0,0-4.169-.3c-1.45,1.47-1.649,4.331-.061,5.639,4.146,3.422,9.306-.2,10.09-4.33a7.831,7.831,0,0,0,.126-3.36" fill="#fff"/>
    <path id="Path_287" data-name="Path 287" d="M104.044,101.246a16.667,16.667,0,0,0-7.794-.026,14.02,14.02,0,0,0-8.942,5.874,12.256,12.256,0,0,0-1.822,9.968,12.328,12.328,0,0,0,9.133,9.505,15.344,15.344,0,0,0,7.442.1,16.083,16.083,0,0,0,9-5.493q3.554-4.271,2.159-10.413a12.925,12.925,0,0,0-3.146-6.215,12.121,12.121,0,0,0-6.028-3.3m1.464,19.825a5.273,5.273,0,0,1-3.859,3.315,5.037,5.037,0,0,1-4.756-1.3q-2.073-1.907-3.434-7.875-1.305-5.751-.243-8.4a5.033,5.033,0,0,1,3.727-3.252,5.269,5.269,0,0,1,4.91,1.322q2.174,1.934,3.506,7.786,1.3,5.7.149,8.4" fill="#fff"/>
    <path id="Path_288" data-name="Path 288" d="M149.641,88.963c-.155-.664.355-1.328-.383-1.16l-8.244,1.843a1.143,1.143,0,1,0,.506,2.218l.015,0,.006,0a1.778,1.778,0,0,1,1.216.277,2.066,2.066,0,0,1,.861,1.342,2.553,2.553,0,0,1,.046.935l-1.894,10.705-7.045-9a3.084,3.084,0,0,1-.668-1.3,1.1,1.1,0,0,1,.256-1,2.312,2.312,0,0,1,1.114-.587c.005,0,0-.009,0-.009l.092-.021a1.146,1.146,0,1,0-.5-2.224l-10.973,2.46a1.244,1.244,0,0,0-1,1.453,1.217,1.217,0,0,0,1.367.876l0,0a3.06,3.06,0,0,1,1.1.069,6.566,6.566,0,0,1,2.124,1.865l-2.052,11.071-7.5-9.685a1.749,1.749,0,0,1-.347-.684,1.084,1.084,0,0,1,.252-.975,2.529,2.529,0,0,1,1.091-.563v0a1.135,1.135,0,1,0-.555-2.194l-9.858,2.206a1.293,1.293,0,0,0-1.032,1.5,1.255,1.255,0,0,0,1.3.925,2.131,2.131,0,0,1,.727.117,4.121,4.121,0,0,1,1.384,1.264l13.761,18.068,1.955-.435,3.083-17.684,11.084,14.473,1.924-.432,3.5-20.559a4.918,4.918,0,0,1,2.51-3.749,1.272,1.272,0,0,0,.774-1.41" fill="#fff"/>
    <path id="Path_289" data-name="Path 289" d="M171.6,91.076c-1.235-2.7-4.349-4.89-7.385-4.214a6.317,6.317,0,0,0-4.256,9.269,3.157,3.157,0,0,0,5.013.188c1.133-1.4.83-3.528-1.7-4.794-.326-.162-.369-1.16.016-1.768.485-.766,2.028-1.4,3.678.252,3.441,3.465,1.628,9.9-3.4,11.024-4.619,1.039-6.2-1.488-7.25-6.141L152.09,75.971a12.023,12.023,0,0,1-7.588-1.734l4.87,22.267c1.658,7.367,6.219,11.481,14.338,9.546,5.764-1.373,8.708-5.5,8.861-10.265a10.211,10.211,0,0,0-.263-2.649,11.287,11.287,0,0,0-.711-2.06" fill="#fff"/>
    <path id="Path_290" data-name="Path 290" d="M86.042,107.582c-.864-3.8-2.545-6.588-5.047-8.379a9.944,9.944,0,0,0-8.275-1.646,10.351,10.351,0,0,0-4.3,2.068,12.587,12.587,0,0,0-3.2,4.362L62.331,90.86l-7.075,1.583a11.057,11.057,0,0,1,.474,1.608l5.019,22.619a44.5,44.5,0,0,1,1.117,9.552l1.669.436a27.985,27.985,0,0,0,3.317-5.244,12.286,12.286,0,0,0,17.929-3.391q2.625-4.413,1.261-10.441m-7.761,10.639a5.079,5.079,0,0,1-3.553,3.376,4.507,4.507,0,0,1-4.279-1.348q-1.969-1.893-3.212-7.358a19.769,19.769,0,0,1-.679-6.077,6.266,6.266,0,0,1,1.307-3.347,4.627,4.627,0,0,1,2.56-1.628,4.914,4.914,0,0,1,4.549,1.429q2.157,1.965,3.318,7.043c.773,3.373.761,6.021-.011,7.91" fill="#fff"/>
  </g>
</svg>
