<svg xmlns="http://www.w3.org/2000/svg" xmlns:xlink="http://www.w3.org/1999/xlink" width="402.112" height="308.868" viewBox="0 0 402.112 308.868">
  <defs>
    <clipPath id="clip-path">
      <path id="Path_272" data-name="Path 272" d="M0-45.268H402.112V-354.136H0Z" transform="translate(0 354.136)" fill="none"/>
    </clipPath>
    <clipPath id="clip-path-2">
      <rect id="Rectangle_34" data-name="Rectangle 34" width="260.201" height="86.795" fill="none"/>
    </clipPath>
  </defs>
  <g id="Group_297" data-name="Group 297" transform="translate(0 354.136)">
    <g id="Group_290" data-name="Group 290" transform="translate(0 -354.136)">
      <path id="Path_269" data-name="Path 269" d="M0,0V308.868l66.136-55.093H402.112V0Z" fill="#e7eeba"/>
    </g>
    <g id="Group_296" data-name="Group 296" transform="translate(0 -354.136)" clip-path="url(#clip-path)">
      <g id="Group_291" data-name="Group 291" transform="translate(74.969 83.184)">
        <path id="Path_270" data-name="Path 270" d="M-9.577-11.446V-83.225H-27.838v27.908H-56.664V-83.225H-74.925v71.779h18.261V-39.927h28.826v28.482ZM16.377-34.185l33.88-.575A39.9,39.9,0,0,0,51.4-44.177c0-13.322-8.268-22.395-23.428-22.395-17,0-28.941,11.37-28.941,28.826,0,17.8,11.715,27.907,29.861,27.907,7.694,0,15.389-1.607,20.786-4.363L47.959-27.869c-5.4,3.1-11.6,5.168-17.457,5.168-8.614,0-13.552-4.135-14.126-11.255Zm.114-8.843c.575-6.087,4.25-11.37,10.336-11.37,5.513,0,8.155,3.9,8.155,10.221v1.034ZM76.784-11.446v-78.1L59.1-87.359v75.913Zm28.021,0v-78.1L87.119-87.359v75.913ZM169.577-38.32c0-17.915-12.173-28.251-28.251-28.251-16.194,0-29.056,10.45-29.056,28.6S124.558-9.723,140.637-9.723c15.963,0,28.94-10.681,28.94-28.6m-17.571.115c0,9.187-3.79,14.93-11.025,14.93s-11.14-5.742-11.14-14.815c0-9.187,3.79-15.045,11.025-15.045s11.14,5.972,11.14,14.93" transform="translate(74.925 89.541)" fill="#0d3691"/>
      </g>
      <g id="Group_295" data-name="Group 295" transform="translate(71.94 83.26)" style="mix-blend-mode: multiply;isolation: isolate">
        <g id="Group_294" data-name="Group 294">
          <g id="Group_293" data-name="Group 293" clip-path="url(#clip-path-2)">
            <g id="Group_292" data-name="Group 292" transform="translate(7.849 6.105)">
              <path id="Path_271" data-name="Path 271" d="M-9.577-11.446V-83.225H-27.838v27.908H-56.664V-83.225H-74.925v71.779h18.261V-39.927h28.826v28.482ZM16.377-34.185l33.88-.575A39.9,39.9,0,0,0,51.4-44.177c0-13.322-8.268-22.395-23.428-22.395-17,0-28.941,11.37-28.941,28.826,0,17.8,11.715,27.907,29.861,27.907,7.694,0,15.389-1.607,20.786-4.363L47.959-27.869c-5.4,3.1-11.6,5.168-17.457,5.168-8.614,0-13.552-4.135-14.126-11.255Zm.114-8.843c.575-6.087,4.25-11.37,10.336-11.37,5.513,0,8.155,3.9,8.155,10.221v1.034ZM76.784-11.446v-78.1L59.1-87.359v75.913Zm28.021,0v-78.1L87.119-87.359v75.913ZM169.577-38.32c0-17.915-12.173-28.251-28.251-28.251-16.194,0-29.056,10.45-29.056,28.6S124.558-9.723,140.637-9.723c15.963,0,28.94-10.681,28.94-28.6m-17.571.115c0,9.187-3.79,14.93-11.025,14.93s-11.14-5.742-11.14-14.815c0-9.187,3.79-15.045,11.025-15.045s11.14,5.972,11.14,14.93" transform="translate(74.925 89.541)" fill="#bdd542"/>
            </g>
          </g>
        </g>
      </g>
    </g>
  </g>
</svg>
