
<svg xmlns="http://www.w3.org/2000/svg" width="17.5" height="17.5" viewBox="0 0 17.5 17.5">
  <path id="Path_341" data-name="Path 341" d="M16.25-16.25h-15A1.255,1.255,0,0,0,0-14.988V-.012A1.255,1.255,0,0,0,1.246,1.25h15A1.259,1.259,0,0,0,17.5-.012V-14.988A1.259,1.259,0,0,0,16.25-16.25ZM5.289-1.25H2.7V-9.6h2.6V-1.25Zm-1.3-9.492a1.5,1.5,0,0,1-1.5-1.5,1.5,1.5,0,0,1,1.5-1.5,1.507,1.507,0,0,1,1.5,1.5A1.5,1.5,0,0,1,3.992-10.742ZM15.012-1.25H12.418V-5.312c0-.969-.02-2.215-1.348-2.215-1.352,0-1.559,1.055-1.559,2.145V-1.25H6.918V-9.6H9.406v1.141h.035A2.732,2.732,0,0,1,11.9-9.809c2.625,0,3.113,1.73,3.113,3.98Z" transform="translate(0 16.25)" fill="#fff"/>
</svg>
