<svg xmlns="http://www.w3.org/2000/svg" xmlns:xlink="http://www.w3.org/1999/xlink" width="186" height="79.589" viewBox="0 0 186 79.589">
  <defs>
    <clipPath id="clip-path">
      <path id="Path_249" data-name="Path 249" d="M46.069-15.76H87.475V-26.838H46.069Z" transform="translate(-46.069 26.838)" fill="none"/>
    </clipPath>
    <clipPath id="clip-path-2">
      <path id="Path_252" data-name="Path 252" d="M0,28.9H186V-50.687H0Z" transform="translate(0 50.687)" fill="none"/>
    </clipPath>
  </defs>
  <g id="Group_289" data-name="Group 289" transform="translate(0 50.687)">
    <g id="Group_271" data-name="Group 271" transform="translate(72.338 -13.239)" clip-path="url(#clip-path)">
      <g id="Group_270" data-name="Group 270" transform="translate(-0.001 0)">
        <path id="Path_248" data-name="Path 248" d="M15.037,4.023V-3.828C10.183-5.8,2.945-7.055-5.147-7.055c-8.7,0-16.4,1.449-21.224,3.682v7.4h2.285V3.668c0-2.509,2.362-4.543,5.276-4.543s5.277,2.033,5.277,4.543v.355h2.487V3.668c0-2.509,2.363-4.543,5.279-4.543S-.491,1.159-.491,3.668v.355H2V3.668C2,1.159,4.359-.875,7.272-.875S12.55,1.159,12.55,3.668v.355Z" transform="translate(26.371 7.055)" fill="#ef524d"/>
      </g>
    </g>
    <g id="Group_274" data-name="Group 274" transform="translate(0 -50.687)" clip-path="url(#clip-path-2)">
      <g id="Group_272" data-name="Group 272" transform="translate(72.338 0)">
        <path id="Path_250" data-name="Path 250" d="M0,14.936c4.824-2.233,12.527-3.682,21.223-3.682,8.091,0,15.33,1.255,20.185,3.227V-26.194H0Z" transform="translate(0 26.194)" fill="#255981"/>
      </g>
      <g id="Group_273" data-name="Group 273" transform="translate(78.473 3.168)">
        <path id="Path_251" data-name="Path 251" d="M7.638,10.232a3.048,3.048,0,0,1,.118,2.321c2.911-3.3,4.436-6.631.787-9.2,1.377,2.085.06,5.175-.9,6.884M11.273-5.031c-1.085-.912-2.01-1.7-3.214-2.613l-.945.413.19-.553L5.337-8.328,6.97-8.9c.773-.269.531-.608.151-1.024.65.165,1.22.484,1,1.393a19.729,19.729,0,0,1,3.156,3.5M4.045-14.524c-6.438-3.764-12.461,1.515-12.461,1.515C-5.7-17.043.737-18.066,4.045-14.524m-1.87,2.189c-.8.722-1.81.046-3.679,1.2-.426-2.729,2.881-2.619,3.679-1.2M2.72-9.87C.676-5.543.519-4.834,2.681,1.3-.463-3.415-.978-6.172,2.72-9.87m6.772.157a8.879,8.879,0,0,0-1.149-2.112A4.4,4.4,0,0,1,9.9-9.969l.867.554A6.4,6.4,0,0,0,3.744-16.95a3.634,3.634,0,0,1,2.33,2.682C.107-22.463-13.075-15.424-12.464-8.06c.429-.7,2.52-3.5,4.722-3.776-4.092,2.282-8.322,9.462-3.509,14.986-1.424-4.682.126-7.867,2.762-9.754C-14.942,1.7-6.246,7.8-2.408,14.01c3.775-7.094-5.6-6.394-4.574-15.6C-6.353,4.31-3.5,6.1-1.377,7.95A14.722,14.722,0,0,1-3.457-3.979C-4.872,3.657,2.09,10.087,2.857,15,6.82,7.66-1.851,1.782-2.341-3.98a7.873,7.873,0,0,1,.433-3.855,3.631,3.631,0,0,1-.6-.5c-1.913-2.187-1.584-5.874,1.382-6.537a2.9,2.9,0,0,1,2.4.482c-2.471-1.195-6.7,1.606-2.519,5.769A6.927,6.927,0,0,1,.727-10.046C-6.056-1.088,7.253,4.64,4.449,12.328A5.993,5.993,0,0,0,7.9,7.262C8.087,1.985-.215.6,4.245-7.161c-1.7,5.216-.157,7.027,3.668,9.779-.681-1.611.294-3.965,2.313-5.193L7.17-3.826,11.38-2.8C9.464-1.849,7.647,1.318,9.2,3.01c1.03,1.118,3.082.394,3.958,2.553,1.218-.716,1.3-1.565,1.375-2.707a2.523,2.523,0,0,1,.281,1.556,2.8,2.8,0,0,0-.667-4.489,10.5,10.5,0,0,0-2.005.832c-1.036.535-.575,1.131-1.886,1.05,0,0-.485-.46,1.28-1.377A16.512,16.512,0,0,1,13.934-.6l.419-1.985A3.738,3.738,0,0,0,13.6-3.36c-.371-.292-.955-.625-1.368-.93-.157-.113-.366-.149-.416-.286.322-.653,1.993-.433,2.66-.372a4.18,4.18,0,0,1,1.123-.1c-1.275-1.173-4.569-3.516-6.111-4.667m6.229,6.849a3.39,3.39,0,0,1-.818.3l-.4,2.037a3.429,3.429,0,0,1,.377.207,2.823,2.823,0,0,0,.838-2.548" transform="translate(13.395 17.944)" fill="#fff"/>
      </g>
    </g>
    <g id="Group_275" data-name="Group 275" transform="translate(0 10.58)">
      <path id="Path_253" data-name="Path 253" d="M0,0V17.892H11.079V15.6H2.434V0Z" fill="#fff"/>
    </g>
    <path id="Path_254" data-name="Path 254" d="M9.426,6.223h2.406V-11.669H9.426Z" transform="translate(5.375 22.248)" fill="#fff"/>
    <g id="Group_277" data-name="Group 277" transform="translate(0 -50.687)" clip-path="url(#clip-path-2)">
      <g id="Group_276" data-name="Group 276" transform="translate(21.328 60.838)">
        <path id="Path_255" data-name="Path 255" d="M3.264,6.809c-5.238,0-8.989-3.665-8.989-9.333,0-5.353,3.721-9.418,8.989-9.418,5.24,0,8.989,3.635,8.989,9.3,0,5.354-3.721,9.448-8.989,9.448M3.208-9.766c-3.808,0-6.471,2.833-6.471,7.127,0,4.409,2.663,7.272,6.584,7.272,3.808,0,6.5-2.862,6.5-7.157,0-4.409-2.691-7.242-6.612-7.242" transform="translate(5.725 11.942)" fill="#fff"/>
      </g>
    </g>
    <g id="Group_278" data-name="Group 278" transform="translate(42.942 10.58)">
      <path id="Path_257" data-name="Path 257" d="M4.439,0V14.429L-5.094,0H-7.785V17.892h2.376V3.464l9.591,14.6H6.815V0Z" transform="translate(7.785)" fill="#fff"/>
    </g>
    <g id="Group_281" data-name="Group 281" transform="translate(0 -50.687)" clip-path="url(#clip-path-2)">
      <g id="Group_279" data-name="Group 279" transform="translate(62.124 61.267)">
        <path id="Path_258" data-name="Path 258" d="M4.626,4.657c0,3.035-2.033,5.067-6.642,5.067h-6.1V-8.168h5.926c4.323,0,6.24,1.947,6.24,4.753C4.053-1.584,2.995-.238.989.506c2.377.6,3.637,2.148,3.637,4.152M-1.988-5.935H-5.681V-.323H-2.36c2.577,0,3.98-1.146,3.98-2.892,0-1.718-1.261-2.72-3.608-2.72m-.171,7.816H-5.681v5.61h3.894c2.663,0,3.979-.945,3.979-2.806,0-2.06-1.832-2.8-4.351-2.8" transform="translate(8.113 8.168)" fill="#fff"/>
      </g>
      <g id="Group_280" data-name="Group 280" transform="translate(78.814 61.267)">
        <path id="Path_259" data-name="Path 259" d="M.884,6.5H-1.55V-11.395H3.8c4.323,0,6.584,2.062,6.584,5.238C10.388-3.465,8.813-1.8,6.351-1l4.839,7.5H8.3L3.947-.6.884-.4ZM3.833-2.635c2.347-.086,4.122-1.2,4.122-3.407,0-2.118-1.718-3.12-4.437-3.12H.884v6.614Z" transform="translate(1.55 11.395)" fill="#fff"/>
      </g>
    </g>
    <path id="Path_261" data-name="Path 261" d="M60.586,6.223h2.406V-11.669H60.586Z" transform="translate(34.546 22.248)" fill="#fff"/>
    <g id="Group_284" data-name="Group 284" transform="translate(0 -50.687)" clip-path="url(#clip-path-2)">
      <g id="Group_282" data-name="Group 282" transform="translate(102.547 61.267)">
        <path id="Path_262" data-name="Path 262" d="M1.913,6.5H-3.355V-11.395H2.028c5.926,0,9.476,3.492,9.476,8.817C11.5,2.947,8.068,6.5,1.913,6.5m0-15.631H-.921V4.236H2.028c4.265,0,7.042-2.263,7.042-6.642,0-4.409-2.633-6.728-7.157-6.728" transform="translate(3.355 11.395)" fill="#fff"/>
      </g>
      <g id="Group_283" data-name="Group 283" transform="translate(120.24 60.838)">
        <path id="Path_263" data-name="Path 263" d="M3.254,6.809c-5.24,0-8.961-3.637-8.961-9.333s3.751-9.418,8.961-9.418A12.028,12.028,0,0,1,9.208-10.4l-.8,2.234a9.947,9.947,0,0,0-5.153-1.6c-3.894,0-6.5,2.691-6.5,7.127S-.612,4.633,3.311,4.633A8.983,8.983,0,0,0,7.2,3.718V-.519H2.194V-2.781H9.552V5.092a12.888,12.888,0,0,1-6.3,1.718" transform="translate(5.707 11.942)" fill="#fff"/>
      </g>
    </g>
    <g id="Group_285" data-name="Group 285" transform="translate(139.793 10.58)">
      <path id="Path_265" data-name="Path 265" d="M0,0V17.892H11.337V15.631h-8.9V10.049H9.848V7.787H2.434V2.261h8.9V0Z" fill="#fff"/>
    </g>
    <g id="Group_288" data-name="Group 288" transform="translate(0 -50.687)" clip-path="url(#clip-path-2)">
      <g id="Group_286" data-name="Group 286" transform="translate(155.74 61.267)">
        <path id="Path_266" data-name="Path 266" d="M2.007,4.47-.027,4.5v5.554H-3.519V-7.84H2.264c4.952,0,7.386,2.49,7.386,5.982,0,4.123-2.834,6.3-7.644,6.328m.028-9.39H-.083V1.608L2.149,1.55c2.663-.057,4.007-1.2,4.007-3.293S4.783-4.919,2.035-4.919" transform="translate(3.519 7.84)" fill="#fff"/>
      </g>
      <g id="Group_287" data-name="Group 287" transform="translate(171.973 61.267)">
        <path id="Path_267" data-name="Path 267" d="M1.268,6.5H-2.224V-11.395h6.27c4.522,0,6.928,2.146,6.928,5.439A5.2,5.2,0,0,1,7.108-.8l4.7,7.3H7.824L3.845-.058,1.268.113Zm2.577-9.19C5.993-2.808,7.4-3.78,7.4-5.727c0-1.861-1.4-2.748-3.894-2.748H1.24v5.84Z" transform="translate(2.224 11.395)" fill="#fff"/>
      </g>
    </g>
  </g>
</svg>
