<svg xmlns="http://www.w3.org/2000/svg" xmlns:xlink="http://www.w3.org/1999/xlink" width="85.344" height="100" viewBox="0 0 85.344 100">
  <defs>
    <clipPath id="clip-path">
      <path id="Path_236" data-name="Path 236" d="M0,7.645H85.344v-22.47H0Z" transform="translate(0 14.825)" fill="none"/>
    </clipPath>
    <clipPath id="clip-path-2">
      <path id="Path_239" data-name="Path 239" d="M0,35.025H85.344v-100H0Z" transform="translate(0 64.975)" fill="none"/>
    </clipPath>
  </defs>
  <g id="Group_243" data-name="Group 243" transform="translate(0 64.975)">
    <g id="Group_239" data-name="Group 239" transform="translate(0 12.555)" clip-path="url(#clip-path)">
      <g id="Group_238" data-name="Group 238" transform="translate(0 0)">
        <path id="Path_235" data-name="Path 235" d="M29.892,7.65V-8.286c-10-4-24.923-6.549-41.6-6.549-17.922,0-33.8,2.94-43.743,7.472V7.65h4.708V6.93c0-5.093,4.868-9.22,10.873-9.22s10.878,4.127,10.878,9.22v.72h5.127V6.93c0-5.093,4.868-9.22,10.878-9.22S-2.113,1.837-2.113,6.93v.72H3.014V6.93c0-5.093,4.871-9.22,10.873-9.22S24.765,1.837,24.765,6.93v.72Z" transform="translate(55.452 14.835)" fill="#ef524d"/>
      </g>
    </g>
    <g id="Group_242" data-name="Group 242" transform="translate(0 -64.975)" clip-path="url(#clip-path-2)">
      <g id="Group_240" data-name="Group 240" transform="translate(0 -0.001)">
        <path id="Path_237" data-name="Path 237" d="M0,29.692C9.941,25.09,25.821,22.1,43.743,22.1c16.677,0,31.6,2.583,41.6,6.649V-55.081H0Z" transform="translate(0 55.081)" fill="#00385e"/>
      </g>
      <g id="Group_241" data-name="Group 241" transform="translate(12.646 6.529)">
        <path id="Path_238" data-name="Path 238" d="M15.183,20.34a6.274,6.274,0,0,1,.243,4.783c6-6.81,9.144-13.668,1.622-18.972,2.836,4.3.123,10.667-1.865,14.189m7.494-31.457C20.437-13,18.532-14.629,16.051-16.5l-1.948.85.391-1.139-4.052-1.124,3.367-1.173c1.591-.553,1.091-1.25.308-2.11,1.341.343,2.516,1,2.052,2.872.942.356,5.807,5.962,6.509,7.207M7.779-30.686C-5.491-38.439-17.9-27.561-17.9-27.561-12.312-35.875.961-37.985,7.779-30.686M3.922-26.17c-1.644,1.487-3.729.091-7.581,2.481-.877-5.627,5.941-5.4,7.581-2.481m1.127,5.08C.833-12.171.508-10.712,4.965,1.922-1.513-7.786-2.573-13.47,5.048-21.09m13.958.32a18.3,18.3,0,0,0-2.37-4.349,9.06,9.06,0,0,1,3.2,3.825l1.787,1.144C22.749-26.333,18.7-36.617,7.157-35.683c2.918,1.3,4.491,3.386,4.8,5.525-12.3-16.89-39.467-2.379-38.207,12.8.883-1.442,5.191-7.22,9.728-7.783-8.431,4.7-17.15,19.5-7.23,30.887-2.937-9.648.259-16.212,5.69-20.1C-31.355,2.747-13.431,15.33-5.523,28.128c7.78-14.623-11.537-13.18-9.428-32.152C-13.654,8.137-7.777,11.828-3.4,15.637A30.349,30.349,0,0,1-7.686-8.95C-10.6,6.792,3.749,20.041,5.33,30.159,13.5,15.04-4.372,2.924-5.385-8.951A16.255,16.255,0,0,1-4.492-16.9,7.534,7.534,0,0,1-5.73-17.919C-9.673-22.429-9-30.029-2.882-31.392a5.97,5.97,0,0,1,4.947.994c-5.091-2.464-13.8,3.309-5.188,11.888A14.328,14.328,0,0,1,.941-21.454C-13.04-2.989,14.389,8.816,8.608,24.662c4.58-2.466,6.975-6.289,7.12-10.439C16.11,3.343-1,.5,8.19-15.509,4.694-4.757,7.865-1.028,15.751,4.646c-1.405-3.32.6-8.171,4.765-10.7l-6.3-2.579,8.677,2.121c-3.948,1.95-7.691,8.479-4.48,11.968,2.124,2.306,6.352.811,8.157,5.262,2.512-1.473,2.676-3.227,2.835-5.579a5.206,5.206,0,0,1,.582,3.207C32.608,5.885,32.33.713,28.61-.905A21.284,21.284,0,0,0,24.479.809c-2.136,1.1-1.185,2.33-3.888,2.165,0,0-1-.95,2.636-2.841a34.319,34.319,0,0,1,4.931-2.112l.866-4.089a7.605,7.605,0,0,0-1.544-1.605c-.765-.6-1.97-1.29-2.821-1.916-.32-.235-.751-.308-.857-.589.665-1.348,4.108-.894,5.484-.768a8.656,8.656,0,0,1,2.315-.2c-2.63-2.416-9.421-7.246-12.6-9.621M31.843-6.65a6.847,6.847,0,0,1-1.685.626l-.82,4.2a6.781,6.781,0,0,1,.779.426c2.005-1.451,1.795-4.263,1.727-5.251" transform="translate(28.166 37.733)" fill="#fff"/>
      </g>
    </g>
  </g>
</svg>
